<svg width="494" height="149" viewBox="0 0 494 149" fill="none" xmlns="http://www.w3.org/2000/svg">
<g filter="url(#filter0_di_216_1253)">
<mask id="path-1-outside-1_216_1253" maskUnits="userSpaceOnUse" x="4" y="0" width="486" height="141" fill="black">
<rect fill="white" x="4" width="486" height="141"/>
<path d="M102.852 3.69922V30.0664H69.8438V137H38.2031V30.0664H5V3.69922H102.852ZM221.445 29.0898H157.871V56.4336H207.871V81.5312H157.871V110.633H221.445V137H126.133V3.69922H221.445V29.0898ZM357.812 53.3086L325.098 55.3594C324.642 36.5443 317.318 27.1367 303.125 27.1367C286.849 27.1367 278.711 41.6224 278.711 70.5938C278.711 87.3255 280.924 98.6862 285.352 104.676C289.779 110.6 295.964 113.562 303.906 113.562C316.797 113.562 324.674 105.164 327.539 88.3672L357.812 90.2227C355.859 106.173 349.902 118.315 339.941 126.648C330.046 134.917 317.904 139.051 303.516 139.051C285.872 139.051 271.517 132.964 260.449 120.789C249.447 108.615 243.945 91.7852 243.945 70.3008C243.945 50.1836 249.284 33.7122 259.961 20.8867C270.638 8.0612 285.221 1.64844 303.711 1.64844C335.742 1.64844 353.776 18.8685 357.812 53.3086ZM488.906 3.69922V137H458.242V82.0195H416.543V137H385.879V3.69922H416.543V55.6523H458.242V3.69922H488.906Z"/>
</mask>
<path d="M102.852 3.69922V30.0664H69.8438V137H38.2031V30.0664H5V3.69922H102.852ZM221.445 29.0898H157.871V56.4336H207.871V81.5312H157.871V110.633H221.445V137H126.133V3.69922H221.445V29.0898ZM357.812 53.3086L325.098 55.3594C324.642 36.5443 317.318 27.1367 303.125 27.1367C286.849 27.1367 278.711 41.6224 278.711 70.5938C278.711 87.3255 280.924 98.6862 285.352 104.676C289.779 110.6 295.964 113.562 303.906 113.562C316.797 113.562 324.674 105.164 327.539 88.3672L357.812 90.2227C355.859 106.173 349.902 118.315 339.941 126.648C330.046 134.917 317.904 139.051 303.516 139.051C285.872 139.051 271.517 132.964 260.449 120.789C249.447 108.615 243.945 91.7852 243.945 70.3008C243.945 50.1836 249.284 33.7122 259.961 20.8867C270.638 8.0612 285.221 1.64844 303.711 1.64844C335.742 1.64844 353.776 18.8685 357.812 53.3086ZM488.906 3.69922V137H458.242V82.0195H416.543V137H385.879V3.69922H416.543V55.6523H458.242V3.69922H488.906Z" fill="#76219D" shape-rendering="crispEdges"/>
<path d="M102.852 3.69922H103.852V2.69922H102.852V3.69922ZM102.852 30.0664V31.0664H103.852V30.0664H102.852ZM69.8438 30.0664V29.0664H68.8438V30.0664H69.8438ZM69.8438 137V138H70.8438V137H69.8438ZM38.2031 137H37.2031V138H38.2031V137ZM38.2031 30.0664H39.2031V29.0664H38.2031V30.0664ZM5 30.0664H4V31.0664H5V30.0664ZM5 3.69922V2.69922H4V3.69922H5ZM101.852 3.69922V30.0664H103.852V3.69922H101.852ZM102.852 29.0664H69.8438V31.0664H102.852V29.0664ZM68.8438 30.0664V137H70.8438V30.0664H68.8438ZM69.8438 136H38.2031V138H69.8438V136ZM39.2031 137V30.0664H37.2031V137H39.2031ZM38.2031 29.0664H5V31.0664H38.2031V29.0664ZM6 30.0664V3.69922H4V30.0664H6ZM5 4.69922H102.852V2.69922H5V4.69922ZM221.445 29.0898V30.0898H222.445V29.0898H221.445ZM157.871 29.0898V28.0898H156.871V29.0898H157.871ZM157.871 56.4336H156.871V57.4336H157.871V56.4336ZM207.871 56.4336H208.871V55.4336H207.871V56.4336ZM207.871 81.5312V82.5312H208.871V81.5312H207.871ZM157.871 81.5312V80.5312H156.871V81.5312H157.871ZM157.871 110.633H156.871V111.633H157.871V110.633ZM221.445 110.633H222.445V109.633H221.445V110.633ZM221.445 137V138H222.445V137H221.445ZM126.133 137H125.133V138H126.133V137ZM126.133 3.69922V2.69922H125.133V3.69922H126.133ZM221.445 3.69922H222.445V2.69922H221.445V3.69922ZM221.445 28.0898H157.871V30.0898H221.445V28.0898ZM156.871 29.0898V56.4336H158.871V29.0898H156.871ZM157.871 57.4336H207.871V55.4336H157.871V57.4336ZM206.871 56.4336V81.5312H208.871V56.4336H206.871ZM207.871 80.5312H157.871V82.5312H207.871V80.5312ZM156.871 81.5312V110.633H158.871V81.5312H156.871ZM157.871 111.633H221.445V109.633H157.871V111.633ZM220.445 110.633V137H222.445V110.633H220.445ZM221.445 136H126.133V138H221.445V136ZM127.133 137V3.69922H125.133V137H127.133ZM126.133 4.69922H221.445V2.69922H126.133V4.69922ZM220.445 3.69922V29.0898H222.445V3.69922H220.445ZM357.812 53.3086L357.875 54.3066L358.929 54.2406L358.806 53.1922L357.812 53.3086ZM325.098 55.3594L324.098 55.3836L324.123 56.4224L325.16 56.3574L325.098 55.3594ZM285.352 104.676L284.547 105.27L284.551 105.274L285.352 104.676ZM327.539 88.3672L327.6 87.3691L326.704 87.3141L326.553 88.1991L327.539 88.3672ZM357.812 90.2227L358.805 90.3442L358.934 89.2895L357.874 89.2245L357.812 90.2227ZM339.941 126.648L340.583 127.416L340.583 127.415L339.941 126.648ZM260.449 120.789L259.707 121.46L259.709 121.462L260.449 120.789ZM259.961 20.8867L259.192 20.2469L259.961 20.8867ZM357.75 52.3106L325.035 54.3613L325.16 56.3574L357.875 54.3066L357.75 52.3106ZM326.097 55.3352C325.867 45.8286 323.902 38.5235 320.052 33.5781C316.163 28.5834 310.464 26.1367 303.125 26.1367V28.1367C309.979 28.1367 315.038 30.3938 318.474 34.8067C321.948 39.2688 323.872 46.075 324.098 55.3836L326.097 55.3352ZM303.125 26.1367C298.903 26.1367 295.161 27.0777 291.934 28.9928C288.707 30.9073 286.048 33.7631 283.943 37.5112C279.748 44.9771 277.711 56.0472 277.711 70.5938H279.711C279.711 56.1689 281.743 45.5105 285.686 38.4908C287.65 34.996 290.077 32.4197 292.954 30.7128C295.83 29.0065 299.209 28.1367 303.125 28.1367V26.1367ZM277.711 70.5938C277.711 78.9981 278.266 86.09 279.39 91.8543C280.511 97.6078 282.21 102.108 284.547 105.27L286.156 104.081C284.066 101.254 282.445 97.079 281.353 91.4718C280.262 85.8755 279.711 78.9211 279.711 70.5938H277.711ZM284.551 105.274C289.182 111.472 295.675 114.562 303.906 114.562V112.562C296.252 112.562 290.375 109.728 286.153 104.077L284.551 105.274ZM303.906 114.562C310.591 114.562 316.06 112.374 320.212 107.948C324.335 103.552 327.074 97.0397 328.525 88.5353L326.553 88.1991C325.139 96.4915 322.508 102.577 318.753 106.58C315.027 110.552 310.112 112.562 303.906 112.562V114.562ZM327.478 89.3653L357.751 91.2208L357.874 89.2245L327.6 87.3691L327.478 89.3653ZM356.82 90.1011C354.89 105.862 349.022 117.747 339.3 125.881L340.583 127.415C350.782 118.883 356.829 106.484 358.805 90.3442L356.82 90.1011ZM339.3 125.881C329.605 133.981 317.698 138.051 303.516 138.051V140.051C318.109 140.051 330.486 135.852 340.583 127.416L339.3 125.881ZM303.516 138.051C286.131 138.051 272.052 132.066 261.189 120.116L259.709 121.462C270.981 133.861 285.614 140.051 303.516 140.051V138.051ZM261.191 120.119C250.401 108.179 244.945 91.6159 244.945 70.3008H242.945C242.945 91.9544 248.493 109.05 259.707 121.46L261.191 120.119ZM244.945 70.3008C244.945 50.3674 250.231 34.1374 260.729 21.5265L259.192 20.2469C248.337 33.2871 242.945 49.9998 242.945 70.3008H244.945ZM260.729 21.5265C271.195 8.95568 285.482 2.64844 303.711 2.64844V0.648438C284.961 0.648438 270.082 7.16672 259.192 20.2469L260.729 21.5265ZM303.711 2.64844C319.545 2.64844 331.787 6.90071 340.569 15.2867C349.362 23.683 354.818 36.3468 356.819 53.425L358.806 53.1922C356.771 35.8303 351.191 22.664 341.95 13.8402C332.699 5.00619 319.908 0.648438 303.711 0.648438V2.64844ZM488.906 3.69922H489.906V2.69922H488.906V3.69922ZM488.906 137V138H489.906V137H488.906ZM458.242 137H457.242V138H458.242V137ZM458.242 82.0195H459.242V81.0195H458.242V82.0195ZM416.543 82.0195V81.0195H415.543V82.0195H416.543ZM416.543 137V138H417.543V137H416.543ZM385.879 137H384.879V138H385.879V137ZM385.879 3.69922V2.69922H384.879V3.69922H385.879ZM416.543 3.69922H417.543V2.69922H416.543V3.69922ZM416.543 55.6523H415.543V56.6523H416.543V55.6523ZM458.242 55.6523V56.6523H459.242V55.6523H458.242ZM458.242 3.69922V2.69922H457.242V3.69922H458.242ZM487.906 3.69922V137H489.906V3.69922H487.906ZM488.906 136H458.242V138H488.906V136ZM459.242 137V82.0195H457.242V137H459.242ZM458.242 81.0195H416.543V83.0195H458.242V81.0195ZM415.543 82.0195V137H417.543V82.0195H415.543ZM416.543 136H385.879V138H416.543V136ZM386.879 137V3.69922H384.879V137H386.879ZM385.879 4.69922H416.543V2.69922H385.879V4.69922ZM415.543 3.69922V55.6523H417.543V3.69922H415.543ZM416.543 56.6523H458.242V54.6523H416.543V56.6523ZM459.242 55.6523V3.69922H457.242V55.6523H459.242ZM458.242 4.69922H488.906V2.69922H458.242V4.69922Z" fill="black" fill-opacity="0.2" mask="url(#path-1-outside-1_216_1253)"/>
</g>
<defs>
<filter id="filter0_di_216_1253" x="0" y="0.648438" width="493.906" height="147.402" filterUnits="userSpaceOnUse" color-interpolation-filters="sRGB">
<feFlood flood-opacity="0" result="BackgroundImageFix"/>
<feColorMatrix in="SourceAlpha" type="matrix" values="0 0 0 0 0 0 0 0 0 0 0 0 0 0 0 0 0 0 127 0" result="hardAlpha"/>
<feOffset dy="4"/>
<feGaussianBlur stdDeviation="2"/>
<feComposite in2="hardAlpha" operator="out"/>
<feColorMatrix type="matrix" values="0 0 0 0 0 0 0 0 0 0 0 0 0 0 0 0 0 0 0.25 0"/>
<feBlend mode="normal" in2="BackgroundImageFix" result="effect1_dropShadow_216_1253"/>
<feBlend mode="normal" in="SourceGraphic" in2="effect1_dropShadow_216_1253" result="shape"/>
<feColorMatrix in="SourceAlpha" type="matrix" values="0 0 0 0 0 0 0 0 0 0 0 0 0 0 0 0 0 0 127 0" result="hardAlpha"/>
<feOffset dy="4"/>
<feGaussianBlur stdDeviation="2"/>
<feComposite in2="hardAlpha" operator="arithmetic" k2="-1" k3="1"/>
<feColorMatrix type="matrix" values="0 0 0 0 0 0 0 0 0 0 0 0 0 0 0 0 0 0 0.25 0"/>
<feBlend mode="normal" in2="shape" result="effect2_innerShadow_216_1253"/>
</filter>
</defs>
</svg>
