<svg width="917" height="158" viewBox="0 0 917 158" fill="none" xmlns="http://www.w3.org/2000/svg">
<g filter="url(#filter0_i_216_1236)">
<path fill-rule="evenodd" clip-rule="evenodd" d="M179.669 5.96706C181.381 6.73105 183.156 7.19215 184.952 7.33952C189.106 7.92271 193.281 8.14878 197.455 8.01639H201.79C206.064 8.21293 210.338 7.61217 214.497 6.23025C214.584 6.19922 214.676 6.16956 214.768 6.13943C215.516 5.89575 216.357 5.6218 216.393 4.35013C216.429 3.09948 215.582 2.74185 214.88 2.44517C214.78 2.40289 214.683 2.36184 214.591 2.31962C211.79 1.01289 208.863 0.302922 205.908 0.213898C198.823 -0.237783 191.724 0.026098 184.667 1.00352C182.922 1.20939 181.21 1.77985 179.587 2.69561C179.059 3.03404 178.477 3.41008 178.531 4.48175C178.578 5.42361 179.013 5.63937 179.476 5.86926C179.54 5.90095 179.605 5.9329 179.669 5.96706ZM159.606 25.8776C161.11 26.755 162.683 27.386 164.293 27.7577C168.018 28.6794 171.775 29.237 175.527 29.7939L175.527 29.794C176.673 29.9642 177.819 30.1343 178.964 30.3147L180.209 30.5119C189.642 32.0042 199.07 33.4958 208.373 36.1431C214.409 37.6753 220.245 40.4577 225.685 44.3968C229.641 47.3862 233.041 51.2217 234.748 57.2568C234.983 58.0957 235.357 58.0746 235.747 58.0525C235.829 58.0479 235.912 58.0432 235.994 58.0465C242.506 58.0248 248.991 56.8754 255.298 54.6247C259.203 53.5615 262.832 51.0689 265.81 47.405C266.061 47.1256 266.256 46.7603 266.375 46.3449C266.493 45.9296 266.532 45.4785 266.487 45.0361C266.371 43.9031 266.035 42.8353 265.515 41.9476C264.995 41.0598 264.31 40.3856 263.534 39.9974C261.332 38.7641 259.068 37.7525 256.761 36.9703C253.598 36.0182 250.401 35.2965 247.184 34.8082C245.621 34.4514 244.018 34.3004 242.419 34.1497L242.418 34.1496C241.911 34.1018 241.404 34.0541 240.898 33.9998C240.082 33.9054 239.264 33.8066 238.442 33.7074C235.171 33.3124 231.862 32.9129 228.571 32.7776C223.885 32.5749 219.218 31.997 214.554 31.4196C213.596 31.3009 212.637 31.1822 211.678 31.0668C205.325 30.2959 198.999 29.1866 192.713 28.0022C190.346 27.5976 187.995 27.0265 185.669 26.2913C185.776 26.0317 185.922 25.8079 186.097 25.6357C186.273 25.4634 186.474 25.3471 186.685 25.2948C188.899 24.1413 191.205 23.3647 193.553 22.9822C200.565 21.8034 207.675 23.3526 214.09 27.4569C214.897 28.0862 215.794 28.4587 216.718 28.5474C221.44 28.6896 226.161 28.2175 230.82 27.1373C232.363 26.7836 233.841 26.0106 235.168 24.8623C235.491 24.6341 235.775 24.3117 236.001 23.9171C236.226 23.5224 236.387 23.0649 236.474 22.5757C236.56 22.0866 236.569 21.5773 236.5 21.0829C236.431 20.5884 236.287 20.1204 236.076 19.7108C235.383 18.5563 234.466 17.7015 233.434 17.2479C231.344 16.3988 229.212 15.7703 227.054 15.3678C226.3 15.176 225.53 15.1064 224.759 15.037C224.019 14.9702 223.28 14.9035 222.556 14.7285C219.408 13.8773 216.213 13.4055 213.006 13.3184C210.555 13.3184 208.104 13.2888 205.653 13.2592C195.912 13.1414 186.172 13.0236 176.431 14.7661C175.695 14.8961 174.959 15.0217 174.223 15.1472C171.235 15.6572 168.252 16.1663 165.296 16.9659C163.237 17.3409 161.245 18.2328 159.416 19.598C158.945 19.9765 158.559 20.5275 158.298 21.1907C158.038 21.854 157.914 22.6038 157.94 23.3583C157.886 24.712 158.78 25.37 159.606 25.8776ZM801.57 89.4821C799.362 131.465 772.852 144.006 740.612 144.006C707.03 143.912 679.314 130.412 679.45 83.3341V74.2719C679.314 27.2689 707.03 13.8072 740.612 13.6192C772.866 13.7132 799.376 26.2912 801.57 68.1427H765.781C762.516 55.9219 752.587 53.1017 740.598 53.1017C726.334 53.3838 714.21 56.862 714.413 77.3365V80.3823C714.21 100.631 726.334 104.335 740.598 104.617C752.587 104.617 762.584 101.646 765.781 89.4445L801.57 89.4821ZM61.9364 64.7961L62.059 64.8046C78.2159 65.9355 98.5696 67.3602 110.908 76.6542L110.925 76.6103C111.293 75.6762 111.834 74.8951 112.491 74.3471C114.705 72.4744 117.106 71.0678 119.617 70.1732C121.888 69.046 124.227 68.2029 126.607 67.6539C128.42 67.3014 130.205 66.8723 131.991 66.4428C134.968 65.7269 137.95 65.01 141.074 64.6456C144.113 64.2913 147.137 63.9717 150.152 63.6531L150.153 63.6531L150.153 63.653C152.097 63.4475 154.037 63.2425 155.975 63.0288H156.707L156.764 63.0225C157.73 62.9169 158.253 62.8596 158.495 63.0935C158.783 63.3704 158.676 64.0557 158.443 65.5526L158.4 65.8301C157.625 70.7687 157.28 75.8184 157.371 80.8711C157.433 83.3066 157.592 85.7356 157.845 88.1472C157.848 88.3679 157.884 88.5853 157.95 88.7862C158.016 88.987 158.111 89.1669 158.229 89.3148C158.347 89.4628 158.485 89.5757 158.636 89.6465C158.787 89.7173 158.946 89.7445 159.105 89.7265C161.194 89.9877 163.293 90.1507 165.393 90.3138C167.977 90.5145 170.562 90.7151 173.125 91.099C176.217 91.5619 179.369 91.8416 182.517 92.121C184.1 92.2615 185.681 92.4019 187.254 92.5655C189.335 92.7777 191.414 93.0083 193.491 93.2387C196.566 93.5799 199.638 93.9206 202.711 94.2012C205.28 94.4492 207.853 94.6348 210.426 94.8203L210.427 94.8203C212.534 94.9723 214.641 95.1242 216.745 95.3104C217.848 95.4076 218.976 95.5606 220.094 95.7123C221.572 95.9128 223.034 96.111 224.398 96.1753C225.75 96.2388 227.098 96.41 228.443 96.5809C229.484 96.7132 230.524 96.8453 231.565 96.9274C236.044 97.2407 240.496 97.8674 244.921 98.8075C246.04 99.0474 247.162 99.2395 248.284 99.4314C249.975 99.7208 251.664 100.01 253.334 100.462C256.237 100.917 259.054 102.122 261.638 104.015C262.289 104.501 262.836 105.217 263.223 106.092C263.61 106.966 263.823 107.967 263.841 108.992C263.859 110.018 263.681 111.032 263.325 111.931C262.969 112.831 262.447 113.583 261.814 114.112C259.504 116.31 256.887 117.809 254.133 118.511C247.904 120.581 241.559 121.915 235.168 122.497L234.569 122.551C230.192 122.947 225.823 123.343 221.107 123.343C222.492 121.887 223.739 120.194 224.818 118.304C225.174 117.748 225.443 117.094 225.606 116.385C225.769 115.676 225.824 114.928 225.767 114.188C225.709 113.448 225.541 112.732 225.273 112.088C225.004 111.444 224.642 110.884 224.209 110.445C222.305 108.297 220.114 106.693 217.761 105.726C212.531 103.223 207.136 101.441 201.654 100.406C197.062 99.3715 192.456 98.5442 187.837 97.8862C182.648 97.1341 177.46 96.5889 172.258 96.1377C170.71 96.0019 169.163 95.8568 167.616 95.7118L167.616 95.7118L167.616 95.7117L167.615 95.7117L167.615 95.7117C164.237 95.395 160.861 95.0784 157.479 94.8592C154.315 94.6482 151.144 94.3076 147.975 93.9673L147.975 93.9673C146.627 93.8225 145.279 93.6778 143.933 93.5431C139.219 92.9791 134.532 92.1706 129.872 91.099C126.515 90.3529 123.222 89.554 119.956 88.4125C121.258 91.7807 121.97 95.6568 121.961 100.124C121.961 135.62 92.6461 144.043 61.2049 144.043C29.7636 144.043 3.76806 138.685 0.435645 100.124H37.011C41.0072 109.731 50.2729 112.232 61.2049 112.232C72.1368 112.232 85.3852 109.731 85.3852 100.124C85.3852 94.6524 74.5481 93.8251 60.4598 92.9039L60.3367 92.8953C35.365 91.1474 0.368024 88.6978 0.435645 57.6704C0.435645 22.155 29.7501 13.6568 61.2049 13.6568C92.6597 13.6568 118.628 18.8271 121.961 57.6704H85.3852C81.389 47.875 72.1233 45.5625 61.2049 45.5625C50.2865 45.5625 37.011 47.781 37.011 57.6704C37.011 63.1228 47.8752 63.8748 61.9364 64.7961ZM310.012 16.7026V101.59H379.925V141.073H275.103V85.6511C273.122 86.566 271.093 87.2686 269.034 87.7524C262.762 89.5009 256.422 90.7794 250.069 91.9074C245.544 92.6971 241.033 93.2611 236.523 93.6748C235.981 93.7124 235.628 93.656 235.764 92.7347C236.929 85.4586 234.138 80.8335 230.156 77.2237C225.54 73.3172 220.463 70.5739 215.16 69.1204C210.527 67.6163 205.867 66.2438 201.193 65.0781C198.989 64.5145 196.722 64.1616 194.447 63.8074L194.447 63.8074L194.447 63.8073C193.535 63.6654 192.622 63.5232 191.711 63.3672L180.874 61.4871C179.723 61.2971 178.571 61.1043 177.419 60.9114L177.418 60.9112L177.418 60.9111L177.417 60.9111L177.417 60.911L177.417 60.911L177.417 60.911L177.416 60.9109C174.35 60.3976 171.279 59.8835 168.208 59.419C167.378 59.309 166.55 59.2003 165.722 59.0917L165.722 59.0916L165.721 59.0916L165.721 59.0915L165.721 59.0915L165.72 59.0914C162.02 58.6059 158.336 58.1226 154.662 57.5388L154.417 57.4991L154.417 57.4991L154.417 57.499L154.416 57.499L154.416 57.4989L154.416 57.4989C150.343 56.836 146.359 56.1877 142.375 55.3767L138.568 54.6059C136.758 54.2236 135.005 53.4295 133.38 52.2557C132.86 51.8534 132.401 51.3174 132.025 50.6764C130.522 48.3075 130.603 46.4085 132.324 44.3968C134.029 42.5429 135.936 41.0769 137.972 40.0537C141.09 38.3429 144.327 37.0828 147.631 36.2935C152.372 35.0353 157.162 34.1689 161.977 33.6989C164.485 33.2945 167.011 33.1437 169.536 33.2477C169.95 33.3016 170.362 33.1964 170.776 33.0905C171.228 32.975 171.684 32.8586 172.15 32.9469C172.23 32.9646 172.315 32.9698 172.401 32.975C172.678 32.9919 172.96 33.0091 173.085 33.4545C173.201 33.8711 172.999 34.0379 172.8 34.2022C172.72 34.2678 172.641 34.3329 172.583 34.4134C172.275 34.8574 171.949 35.2779 171.608 35.673C168.169 39.759 165.195 44.545 162.789 49.868C161.435 53.3462 161.435 53.4214 164.144 53.7598C167.774 54.2116 171.462 54.5039 175.061 54.7891C176.404 54.8956 177.734 55.0011 179.045 55.1135C183.868 55.5271 188.69 55.9595 193.513 56.5236C195.449 56.75 197.389 56.9196 199.328 57.0893L199.329 57.0893L199.329 57.0894L199.329 57.0894L199.329 57.0894L199.33 57.0895L199.33 57.0895L199.33 57.0895L199.33 57.0895L199.331 57.0896L199.331 57.0896C201.095 57.2439 202.86 57.3983 204.621 57.5952C205.945 57.7416 207.273 57.8642 208.603 57.987C211.544 58.2586 214.493 58.5309 217.422 59.0617C220.445 59.6026 223.492 59.9048 226.539 60.2069C227.41 60.2933 228.282 60.3798 229.153 60.4718C234.06 61.0109 238.974 61.5179 243.889 62.025C245.489 62.19 247.088 62.355 248.687 62.5211C249.883 62.6483 251.078 62.7674 252.273 62.8865C255.142 63.1722 258.01 63.4579 260.879 63.856C263.652 64.1272 266.4 64.7566 269.088 65.7361C270.302 66.2317 271.537 66.6046 272.772 66.9774C273.551 67.2126 274.33 67.4479 275.103 67.7138V16.7026H310.012ZM447.319 64.8046L447.196 64.7961C433.135 63.8748 422.271 63.1228 422.311 57.6704C422.311 47.781 435.587 45.5625 446.505 45.5625C457.424 45.5625 466.622 47.875 470.686 57.6704H507.261C503.929 18.8271 477.96 13.6568 446.505 13.6568C415.051 13.6568 385.736 22.155 385.736 57.6704C385.669 88.6978 420.666 91.1474 445.637 92.8953L445.76 92.9039C459.849 93.8251 470.686 94.6524 470.686 100.124C470.686 109.731 457.397 112.232 446.465 112.232C435.533 112.232 426.267 109.731 422.271 100.124H385.696C389.028 138.685 415.023 144.043 446.465 144.043C477.906 144.043 507.22 135.62 507.22 100.124C507.288 69.0021 472.291 66.5525 447.319 64.8046ZM553.387 141.185V56.2791H511.868V16.8906H629.803V56.2791H588.297V141.185H553.387ZM670.97 140.997V16.7026H636.061V140.997H670.97ZM916.756 16.8906H811.947V141.204H916.756V109.242H846.856V93.3363H916.756V64.5705H846.856V48.6647H916.756V16.8906ZM233.339 129.773C234.018 130.109 234.675 130.525 235.304 131.014C237.214 132.499 237.268 134.304 235.466 136.053C233.439 137.936 231.173 139.269 228.788 139.982C218.553 143.329 208.046 144.795 197.536 144.344C192.023 144.25 186.604 143.78 181.186 143.009C176.165 142.357 171.161 141.405 166.176 140.151C164.751 139.9 163.339 139.517 161.95 139.004C160.609 138.422 159.01 137.67 158.943 135.526C158.879 133.506 160.162 132.655 161.297 131.903L161.297 131.903L161.305 131.898C161.371 131.854 161.437 131.81 161.503 131.766C164.04 130.234 166.722 129.215 169.468 128.739C172.319 128.105 175.197 127.735 178.084 127.63C178.52 127.581 178.957 127.684 179.357 127.931C185.502 132.225 192.327 134.3 199.202 133.966C201.383 133.833 203.551 133.424 205.678 132.744C206.094 132.564 206.511 132.371 206.928 132.177C207.866 131.742 208.804 131.306 209.742 131.033C210.067 130.6 210.243 130.168 209.579 130.168C208.734 130.09 207.895 129.908 207.073 129.623C198.579 127.874 190.018 126.464 181.511 125.524C177.384 125.068 173.264 124.462 169.143 123.855L169.142 123.855L169.142 123.855C164.767 123.211 160.39 122.567 156.003 122.102C151.243 121.76 146.5 121.07 141.793 120.034C141.491 119.954 141.188 119.875 140.885 119.796C137.482 118.909 134.053 118.016 130.956 115.616C130.476 115.287 130.022 114.89 129.601 114.431C129.21 114.015 128.896 113.475 128.685 112.857C128.474 112.239 128.373 111.56 128.389 110.876C128.404 110.193 128.537 109.524 128.777 108.926C129.016 108.328 129.354 107.818 129.764 107.437C131.628 105.556 133.688 104.079 135.873 103.057C139.685 101.391 143.591 100.171 147.55 99.4091C150.71 98.6996 153.89 98.405 157.073 98.1101C157.601 98.0612 158.13 98.0123 158.658 97.9614C159.038 97.8385 159.438 97.9218 159.775 98.1944C160.113 98.467 160.363 98.9083 160.473 99.4279C161.65 103.874 163.324 108.036 165.431 111.762C166.542 113.51 167.666 115.259 168.831 116.951C169.145 117.374 169.519 117.7 169.93 117.908C170.341 118.115 170.779 118.199 171.216 118.154C172.647 118.242 174.072 118.462 175.483 118.812C176.588 119.041 177.686 119.298 178.783 119.555L178.783 119.556L178.783 119.556C179.85 119.806 180.916 120.056 181.985 120.278C184.523 120.792 187.065 121.256 189.612 121.67C192.373 122.118 195.146 122.552 197.915 122.984C199.439 123.222 200.961 123.46 202.481 123.7L210.947 125.016C211.996 125.178 213.046 125.334 214.096 125.489L214.097 125.489C216.708 125.876 219.321 126.263 221.92 126.746C225.789 127.226 229.615 128.24 233.339 129.773ZM214.132 151.71C214.46 151.836 214.788 151.961 215.119 152.071C215.376 152.147 215.61 152.324 215.795 152.581C215.981 152.838 216.108 153.164 216.163 153.519C216.271 154.421 215.716 154.797 215.255 155.079C213.242 156.192 211.126 156.901 208.969 157.185C203.218 158.006 197.43 158.207 191.657 157.787C188.043 157.771 184.445 157.101 180.955 155.794C180.84 155.761 180.727 155.717 180.617 155.662C180.413 155.518 180.169 155.43 179.925 155.342C179.313 155.12 178.701 154.899 178.72 153.782C178.744 152.39 179.696 152.105 180.517 151.86C180.616 151.83 180.713 151.801 180.806 151.77C185.412 150.506 190.107 149.97 194.8 150.172H198.295C202.947 149.991 207.602 150.299 212.221 151.094C212.878 151.229 213.506 151.47 214.132 151.71Z" fill="#76219D"/>
</g>
<defs>
<filter id="filter0_i_216_1236" x="0.435547" y="0" width="916.32" height="162" filterUnits="userSpaceOnUse" color-interpolation-filters="sRGB">
<feFlood flood-opacity="0" result="BackgroundImageFix"/>
<feBlend mode="normal" in="SourceGraphic" in2="BackgroundImageFix" result="shape"/>
<feColorMatrix in="SourceAlpha" type="matrix" values="0 0 0 0 0 0 0 0 0 0 0 0 0 0 0 0 0 0 127 0" result="hardAlpha"/>
<feOffset dy="4"/>
<feGaussianBlur stdDeviation="2"/>
<feComposite in2="hardAlpha" operator="arithmetic" k2="-1" k3="1"/>
<feColorMatrix type="matrix" values="0 0 0 0 0 0 0 0 0 0 0 0 0 0 0 0 0 0 0.25 0"/>
<feBlend mode="normal" in2="shape" result="effect1_innerShadow_216_1236"/>
</filter>
</defs>
</svg>
