<svg width="245" height="37" viewBox="0 0 245 37" fill="none" xmlns="http://www.w3.org/2000/svg">
<path fill-rule="evenodd" clip-rule="evenodd" d="M47.9222 1.39274C48.3801 1.57106 48.8547 1.67868 49.3348 1.71308C50.4454 1.8492 51.5618 1.90196 52.6778 1.87106H53.8369C54.9796 1.91694 56.1223 1.77672 57.2343 1.45417C57.2578 1.44693 57.2821 1.44 57.3068 1.43297C57.5068 1.37609 57.7317 1.31215 57.7413 1.01534C57.7508 0.723433 57.5245 0.639959 57.3367 0.570713C57.31 0.560844 57.284 0.551264 57.2596 0.541411C56.5107 0.236412 55.7279 0.0707034 54.9379 0.0499247C53.0437 -0.0554996 51.1456 0.0060914 49.2587 0.234225C48.7921 0.282277 48.3342 0.415425 47.9005 0.629169C47.7592 0.708158 47.6035 0.795929 47.618 1.04606C47.6307 1.2659 47.7469 1.31625 47.8708 1.36991C47.8879 1.37731 47.9051 1.38477 47.9222 1.39274ZM42.558 6.03996C42.9602 6.24474 43.3808 6.39201 43.8112 6.47879C44.8071 6.69391 45.8116 6.82406 46.8148 6.95405C47.1213 6.99378 47.4277 7.03348 47.7338 7.07559L48.0668 7.12162C50.5889 7.46995 53.1096 7.81809 55.597 8.43597C57.2109 8.7936 58.7713 9.44301 60.2259 10.3624C61.2835 11.0602 62.1926 11.9554 62.649 13.364C62.7118 13.5598 62.8118 13.5549 62.9161 13.5497C62.938 13.5487 62.9602 13.5476 62.9822 13.5483C64.7234 13.5433 66.4572 13.275 68.1435 12.7497C69.1876 12.5015 70.158 11.9197 70.9541 11.0645C71.0213 10.9993 71.0733 10.9141 71.1051 10.8171C71.1368 10.7202 71.1472 10.6149 71.1352 10.5116C71.1042 10.2472 71.0143 9.99797 70.8752 9.79077C70.7361 9.58356 70.553 9.4262 70.3456 9.33557C69.7568 9.04774 69.1515 8.81161 68.5347 8.62905C67.6889 8.40682 66.8342 8.23837 65.9739 8.1244C65.556 8.04112 65.1276 8.00589 64.6999 7.97071C64.5642 7.95955 64.4286 7.94839 64.2934 7.93571C64.0753 7.91369 63.8564 7.89062 63.6368 7.86747C62.7622 7.77528 61.8775 7.68203 60.9974 7.65046C59.7445 7.60314 58.4967 7.46826 57.2497 7.33348L57.2494 7.33345L57.2491 7.33342C56.993 7.30573 56.7369 7.27805 56.4808 7.25114C54.7821 7.07122 53.0906 6.81231 51.4101 6.53584C50.7771 6.44141 50.1485 6.30812 49.5266 6.13651C49.555 6.07594 49.5941 6.02369 49.641 5.98349C49.688 5.94329 49.7417 5.91613 49.7983 5.90393C50.3901 5.6347 51.0068 5.45345 51.6346 5.36416C53.5094 5.08902 55.4105 5.45061 57.1255 6.40858C57.3413 6.55546 57.5813 6.64239 57.8282 6.66309C59.0907 6.6963 60.353 6.58611 61.5986 6.33397C62.0112 6.25143 62.4064 6.07099 62.7613 5.80299C62.8477 5.74973 62.9237 5.67447 62.984 5.58236C63.0442 5.49025 63.0873 5.38345 63.1104 5.26928C63.1334 5.15511 63.1358 5.03626 63.1175 4.92085C63.0991 4.80544 63.0604 4.69621 63.0039 4.60061C62.8187 4.33112 62.5736 4.13162 62.2977 4.02574C61.739 3.82756 61.1687 3.68086 60.5917 3.58691C60.3903 3.54215 60.1843 3.52592 59.9783 3.50971C59.7804 3.49413 59.5826 3.47856 59.3892 3.43771C58.5475 3.23903 57.6931 3.12892 56.8357 3.10859C56.1804 3.10859 55.5251 3.10167 54.8698 3.09476C52.2653 3.06727 49.6609 3.03978 47.0565 3.44648C46.8598 3.47682 46.6631 3.50612 46.4664 3.53541L46.4664 3.53542L46.4663 3.53543L46.4663 3.53544C45.6673 3.65447 44.8698 3.77329 44.0792 3.95992C43.5288 4.04745 42.9962 4.25563 42.5073 4.57428C42.3814 4.66262 42.2779 4.79123 42.2083 4.94603C42.1387 5.10082 42.1055 5.27585 42.1125 5.45194C42.098 5.76789 42.3371 5.92148 42.558 6.03996ZM214.202 20.8856C213.612 30.6846 206.524 33.6116 197.904 33.6116C188.925 33.5896 181.514 30.4389 181.551 19.4506V17.3354C181.514 6.36471 188.925 3.22269 197.904 3.17881C206.528 3.20075 213.616 6.13651 214.202 15.9048H204.633C203.76 13.0525 201.105 12.3942 197.9 12.3942C194.086 12.46 190.844 13.2719 190.899 18.0507V18.7616C190.844 23.4878 194.086 24.3523 197.9 24.4181C201.105 24.4181 203.778 23.7248 204.633 20.8768L214.202 20.8856ZM16.4437 15.1237L16.4765 15.1257C20.7964 15.3896 26.2385 15.7222 29.5374 17.8914L29.5419 17.8812C29.6404 17.6632 29.785 17.4809 29.9609 17.353C30.5527 16.9159 31.1947 16.5876 31.866 16.3788C32.4733 16.1157 33.0987 15.9189 33.7349 15.7908C34.2197 15.7085 34.6969 15.6083 35.1745 15.5081C35.9706 15.341 36.7678 15.1737 37.6032 15.0886C38.4155 15.0059 39.2239 14.9314 40.0298 14.857L40.0299 14.857L40.03 14.857L40.0302 14.857L40.0305 14.857L40.0305 14.8569L40.0305 14.8569L40.0306 14.8569L40.0306 14.8569C40.5504 14.809 41.0691 14.7611 41.5873 14.7112H41.7829L41.7983 14.7098C42.0676 14.684 42.2082 14.6706 42.2692 14.7339C42.3357 14.8031 42.3071 14.9638 42.2472 15.3003L42.2357 15.3651C42.0285 16.5178 41.936 17.6964 41.9604 18.8757C41.9771 19.4442 42.0195 20.0111 42.0872 20.574C42.088 20.6255 42.0975 20.6763 42.1152 20.7231C42.1329 20.77 42.1582 20.812 42.1898 20.8465C42.2214 20.8811 42.2584 20.9074 42.2987 20.9239C42.339 20.9405 42.3816 20.9468 42.424 20.9426C42.9825 21.0036 43.5438 21.0416 44.1051 21.0797L44.1053 21.0797C44.7963 21.1265 45.4873 21.1734 46.1727 21.263C46.9994 21.371 47.8421 21.4363 48.6837 21.5015C49.1069 21.5343 49.5299 21.5671 49.9504 21.6052C50.5066 21.6548 51.0622 21.7086 51.6175 21.7623L51.6176 21.7624L51.6178 21.7624L51.6179 21.7624L51.618 21.7624L51.6181 21.7624L51.6181 21.7624L51.6182 21.7624L51.6182 21.7624C52.4403 21.842 53.2617 21.9216 54.0831 21.987C54.77 22.0449 55.4581 22.0882 56.146 22.1315C56.7094 22.167 57.2728 22.2025 57.8354 22.2459C58.1303 22.2686 58.4319 22.3043 58.731 22.3397C59.1262 22.3865 59.5169 22.4328 59.8818 22.4478C60.2432 22.4626 60.6035 22.5026 60.9632 22.5425L60.9632 22.5425L60.9633 22.5425C61.2417 22.5733 61.5198 22.6042 61.7978 22.6233C62.9955 22.6965 64.1859 22.8427 65.3691 23.0622C65.668 23.1181 65.9681 23.163 66.268 23.2078L66.2682 23.2078C66.7203 23.2753 67.1719 23.3428 67.6183 23.4483C68.3946 23.5545 69.1477 23.8358 69.8386 24.2777C70.0127 24.3911 70.159 24.5583 70.2624 24.7623C70.3659 24.9663 70.4229 25.2 70.4277 25.4394C70.4325 25.6788 70.3849 25.9155 70.2897 26.1253C70.1945 26.3352 70.0551 26.5108 69.8857 26.6342C69.2682 27.1474 68.5685 27.4973 67.832 27.6611C66.1665 28.1443 64.4702 28.4555 62.7613 28.5914L62.6012 28.604C61.4307 28.6965 60.2626 28.7889 59.0017 28.7889C59.3721 28.4491 59.7056 28.054 59.9941 27.6128C60.0893 27.4829 60.161 27.3303 60.2047 27.1648C60.2484 26.9994 60.263 26.8247 60.2476 26.652C60.2323 26.4792 60.1873 26.3123 60.1156 26.1619C60.0438 26.0115 59.947 25.8809 59.8311 25.7785C59.3221 25.277 58.7362 24.9026 58.1071 24.677C56.7087 24.0927 55.2662 23.6768 53.8006 23.4352C52.5727 23.1938 51.3413 23.0007 50.1062 22.8471C48.719 22.6716 47.3317 22.5443 45.9409 22.439C45.527 22.4073 45.1135 22.3735 44.7001 22.3396L44.6997 22.3396L44.6996 22.3396C43.7963 22.2657 42.8937 22.1918 41.9894 22.1406C41.1432 22.0914 40.2953 22.0119 39.4481 21.9324L39.4476 21.9324L39.4471 21.9323L39.4466 21.9323L39.4461 21.9322C39.0863 21.8985 38.7267 21.8648 38.3674 21.8334C37.107 21.7018 35.8538 21.5131 34.6078 21.263C33.7104 21.0888 32.83 20.9023 31.9566 20.6359C32.3047 21.4221 32.4952 22.3267 32.4926 23.3693C32.4926 31.6544 24.6547 33.6203 16.2481 33.6203C7.84156 33.6203 0.891027 32.3697 2.61609e-05 23.3693H9.77931C10.8478 25.6117 13.3252 26.1953 16.2481 26.1953C19.171 26.1953 22.7133 25.6117 22.7133 23.3693C22.7133 22.0923 19.8157 21.8992 16.0489 21.6842L16.016 21.6822C9.33922 21.2742 -0.0180539 20.7025 2.61609e-05 13.4605C2.61609e-05 5.17105 7.83794 3.18754 16.2481 3.18754C24.6583 3.18754 31.6016 4.39432 32.4926 13.4605H22.7133C21.6448 11.1742 19.1674 10.6345 16.2481 10.6345C13.3288 10.6345 9.77931 11.1523 9.77931 13.4605C9.77931 14.7331 12.6841 14.9086 16.4437 15.1237ZM82.7727 3.89846V23.7116H101.466V32.927H73.4389V19.9914C72.9093 20.2049 72.3668 20.3689 71.8162 20.4819C70.1392 20.89 68.4441 21.1884 66.7454 21.4517C65.5357 21.636 64.3296 21.7676 63.1235 21.8642C62.9786 21.8729 62.8844 21.8598 62.9206 21.6448C63.2321 19.9465 62.486 18.867 61.4211 18.0244C60.1871 17.1126 58.8297 16.4723 57.4116 16.1331C56.1729 15.782 54.927 15.4617 53.6774 15.1896C53.0879 15.058 52.4818 14.9756 51.8736 14.893C51.6298 14.8598 51.3856 14.8267 51.142 14.7902L48.2445 14.3514C47.9376 14.3072 47.6306 14.2623 47.3233 14.2174L47.3227 14.2173L47.3221 14.2172L47.3216 14.2172L47.321 14.2171L47.3204 14.217L47.3203 14.217C46.5004 14.0972 45.6792 13.9771 44.8579 13.8687C44.6366 13.8431 44.4154 13.8178 44.1945 13.7925L44.1932 13.7923L44.193 13.7923C43.2036 13.679 42.2186 13.5661 41.236 13.4299L41.1707 13.4206C40.0815 13.2659 39.0162 13.1145 37.9509 12.9252L36.9331 12.7453C36.4489 12.6561 35.9803 12.4707 35.5459 12.1968C35.4069 12.1029 35.284 11.9778 35.1837 11.8282C34.7817 11.2752 34.8034 10.832 35.2634 10.3625C35.7193 9.92974 36.2291 9.58758 36.7737 9.34877C37.6074 8.94944 38.4728 8.65534 39.3562 8.47111C40.6237 8.17744 41.9045 7.97522 43.1918 7.86553C43.8625 7.77114 44.538 7.73593 45.2129 7.7602C45.3238 7.77279 45.4338 7.74824 45.5446 7.72352C45.6655 7.69656 45.7872 7.6694 45.9119 7.69C45.9333 7.69414 45.956 7.69535 45.9789 7.69657C46.0531 7.70051 46.1286 7.70452 46.1618 7.80848C46.1929 7.9057 46.1389 7.94465 46.0857 7.98299C46.0644 7.9983 46.0433 8.0135 46.0278 8.03228C45.9454 8.13593 45.8583 8.23407 45.767 8.32629C44.8474 9.27998 44.0524 10.3971 43.4092 11.6395C43.047 12.4513 43.047 12.4688 43.7713 12.5478C44.742 12.6533 45.728 12.7215 46.6901 12.7881L46.6904 12.7881L46.6905 12.7881L46.6906 12.7881C47.0496 12.8129 47.4052 12.8376 47.7555 12.8638C49.0449 12.9603 50.3343 13.0613 51.6237 13.1929C52.1416 13.2458 52.6603 13.2854 53.1791 13.325C53.6509 13.361 54.1228 13.3971 54.5937 13.443C54.9478 13.4772 55.3029 13.5058 55.6584 13.5345C56.4449 13.5979 57.2333 13.6614 58.0165 13.7853C58.8247 13.9116 59.6395 13.9821 60.454 14.0526L60.4541 14.0526L60.4543 14.0526L60.4544 14.0526L60.4545 14.0527L60.4547 14.0527C60.6876 14.0728 60.9204 14.093 61.1531 14.1144C62.4643 14.2402 63.7775 14.3585 65.0912 14.4768L65.092 14.4769L65.0928 14.4769L65.093 14.477C65.5206 14.5155 65.9483 14.554 66.376 14.5928C66.6956 14.6225 67.0152 14.6502 67.3348 14.678C68.1018 14.7447 68.8688 14.8114 69.6357 14.9043C70.377 14.9676 71.1118 15.1145 71.8306 15.3432C72.1552 15.4588 72.4854 15.5459 72.8155 15.6329C73.0238 15.6878 73.2321 15.7427 73.4389 15.8048V3.89846H82.7727ZM119.485 15.1257L119.452 15.1237C115.692 14.9086 112.788 14.7331 112.799 13.4605C112.799 11.1523 116.348 10.6345 119.267 10.6345C122.187 10.6345 124.646 11.1742 125.733 13.4605H135.512C134.621 4.39432 127.678 3.18754 119.267 3.18754C110.857 3.18754 103.019 5.17105 103.019 13.4605C103.001 20.7025 112.358 21.2742 119.035 21.6822L119.068 21.6842C122.835 21.8992 125.733 22.0923 125.733 23.3693C125.733 25.6117 122.179 26.1953 119.256 26.1953C116.334 26.1953 113.856 25.6117 112.788 23.3693H103.008C103.899 32.3697 110.85 33.6203 119.256 33.6203C127.663 33.6203 135.501 31.6544 135.501 23.3693C135.519 16.1054 126.162 15.5336 119.485 15.1257ZM147.845 32.9533V13.1358H136.743V3.94231H168.276V13.1358H157.179V32.9533H147.845ZM179.283 32.9094V3.89846H169.949V32.9094H179.283ZM245 3.94231H216.977V32.9577H245V25.4976H226.311V21.7851H245V15.071H226.311V11.3585H245V3.94231ZM62.2724 30.2897C62.4539 30.3682 62.6296 30.4651 62.7976 30.5793C63.3083 30.926 63.3228 31.3473 62.8411 31.7554C62.299 32.195 61.6931 32.5062 61.0555 32.6725C58.319 33.4536 55.5097 33.7959 52.6996 33.6906C51.2255 33.6687 49.7767 33.559 48.3279 33.379C46.9854 33.2269 45.6477 33.0046 44.3148 32.712C43.9336 32.6533 43.5561 32.5639 43.1847 32.4443C42.8262 32.3083 42.3988 32.1328 42.3807 31.6325C42.3636 31.1611 42.7068 30.9624 43.0101 30.7869L43.0652 30.7548C43.7436 30.3973 44.4608 30.1594 45.1949 30.0483C45.9572 29.9004 46.7267 29.8139 47.4985 29.7894C47.615 29.778 47.7321 29.8021 47.8389 29.8596C49.4819 30.8619 51.3068 31.3464 53.1451 31.2683C53.7282 31.2373 54.3077 31.1419 54.8764 30.983C54.9879 30.9412 55.0993 30.896 55.2108 30.8508L55.2108 30.8508C55.4615 30.7491 55.7123 30.6475 55.963 30.5837C56.0499 30.4828 56.097 30.3818 55.9195 30.3818C55.6935 30.3637 55.4692 30.3211 55.2495 30.2546C52.9785 29.8465 50.6894 29.5173 48.4148 29.2979C47.3115 29.1915 46.2099 29.05 45.1079 28.9084L45.1079 28.9084L45.1078 28.9084C43.938 28.7581 42.7678 28.6077 41.5947 28.4993C40.3221 28.4194 39.0538 28.2583 37.7953 28.0165C37.7145 27.9979 37.6335 27.9795 37.5526 27.9611C36.6426 27.754 35.7259 27.5454 34.8977 26.9853C34.7694 26.9086 34.648 26.816 34.5355 26.7088C34.431 26.6117 34.347 26.4857 34.2906 26.3414C34.2343 26.1971 34.2071 26.0387 34.2113 25.8791C34.2156 25.7195 34.2511 25.5635 34.3151 25.4239C34.379 25.2843 34.4695 25.1652 34.579 25.0764C35.0775 24.6372 35.6283 24.2925 36.2125 24.0539C37.2318 23.6652 38.2761 23.3805 39.3346 23.2026C40.1795 23.037 41.0298 22.9682 41.8808 22.8994C42.0221 22.888 42.1633 22.8766 42.3046 22.8647C42.4063 22.836 42.5131 22.8555 42.6034 22.9191C42.6936 22.9827 42.7603 23.0857 42.7899 23.207C43.1047 24.2447 43.552 25.2161 44.1156 26.0857C44.4126 26.4938 44.7132 26.9019 45.0247 27.2969C45.1085 27.3957 45.2086 27.4718 45.3185 27.5202C45.4284 27.5687 45.5455 27.5883 45.6621 27.5777C46.0448 27.5983 46.426 27.6496 46.8031 27.7313C47.0986 27.7847 47.3922 27.8448 47.6854 27.9049C47.9708 27.9633 48.2558 28.0216 48.5416 28.0736C49.2201 28.1935 49.8998 28.3018 50.5808 28.3983C51.319 28.503 52.0602 28.6041 52.8005 28.7051L52.801 28.7051L52.8041 28.7056L52.8066 28.7059C53.2121 28.7612 53.6173 28.8165 54.0216 28.8723L56.2853 29.1794C56.5656 29.2172 56.8462 29.2535 57.1269 29.2898L57.127 29.2898L57.1272 29.2898C57.8256 29.3801 58.5242 29.4705 59.2191 29.5832C60.2537 29.6951 61.2766 29.9318 62.2724 30.2897ZM57.1367 35.4097C57.2246 35.4391 57.3123 35.4684 57.4008 35.4941C57.4693 35.5118 57.532 35.5531 57.5815 35.613C57.631 35.673 57.6651 35.7491 57.6797 35.832C57.7087 36.0426 57.5602 36.1304 57.437 36.1962C56.8989 36.456 56.333 36.6215 55.7564 36.6877C54.2188 36.8792 52.6712 36.9262 51.1276 36.8282C50.1611 36.8245 49.1992 36.6681 48.2662 36.363C48.2355 36.3554 48.2052 36.3451 48.1757 36.3323C48.1211 36.2986 48.0559 36.278 47.9908 36.2575C47.827 36.2057 47.6634 36.1541 47.6686 35.8934C47.6751 35.5685 47.9295 35.502 48.1489 35.4447C48.1754 35.4378 48.2014 35.431 48.2264 35.4239C49.4579 35.1287 50.7131 35.0036 51.9679 35.0509H52.9023C54.1462 35.0085 55.3908 35.0804 56.6257 35.2659C56.8014 35.2976 56.9694 35.3537 57.1367 35.4097Z" fill="white"/>
</svg>
