<svg width="700" height="1050" viewBox="0 0 700 1050" fill="none" xmlns="http://www.w3.org/2000/svg">
<g clip-path="url(#clip0_275_43)">
<g opacity="0.4">
<path opacity="0.99" d="M-690 971.62V982.257H1283V971.62H-690Z" fill="#AB83FE"/>
<path opacity="0.99" d="M-690 822.23L-690 829.314H1283V822.23L-690 822.23Z" fill="#AB83FE"/>
<path opacity="0.99" d="M-690 722.666L-690 727.369H1283V722.666H-690Z" fill="#AB83FE"/>
<path opacity="0.99" d="M-690 656.253V659.402H1283V656.253H-690Z" fill="#AB83FE"/>
<path opacity="0.99" d="M-690 611.99V614.086H1283V611.99H-690Z" fill="#AB83FE"/>
<path opacity="0.99" d="M-690 582.481V583.885H1283V582.481H-690Z" fill="#AB83FE"/>
<path opacity="0.99" d="M-690 562.817V563.745L1283 563.745V562.817L-690 562.817Z" fill="#AB83FE"/>
<path opacity="0.99" d="M-690 549.699V550.323H1283V549.699H-690Z" fill="#AB83FE"/>
<path opacity="0.99" d="M-690 540.95V541.363L1283 541.363V540.95L-690 540.95Z" fill="#AB83FE"/>
<path opacity="0.99" d="M-690 535.13V535.402H1283V535.13H-690Z" fill="#AB83FE"/>
<path opacity="0.99" d="M-690 531.241V531.412H1283V531.241H-690Z" fill="#AB83FE"/>
<path opacity="0.99" d="M-690 528.644V528.768L1283 528.768V528.644L-690 528.644Z" fill="#AB83FE"/>
<path opacity="0.99" d="M-690 525.753V525.867H1283V525.753H-690Z" fill="#AB83FE"/>
<path opacity="0.99" d="M-690 524.977V525.092L1283 525.092V524.977H-690Z" fill="#AB83FE"/>
<path opacity="0.99" d="M-690 524.436V524.55H1283V524.436H-690Z" fill="#AB83FE"/>
<path opacity="0.99" d="M-690 526.897V527.011H1283V526.897H-690Z" fill="#AB83FE"/>
</g>
<g opacity="0.4">
<path fill-rule="evenodd" clip-rule="evenodd" d="M-690.021 1189C-361.178 967.5 -32.3445 746 296.499 524.5C-23.7845 746 -344.068 967.5 -664.342 1189H-690.019H-690.021Z" fill="#AB83FE"/>
<path fill-rule="evenodd" clip-rule="evenodd" d="M-690 982.266V971.639C-361.167 822.594 -32.3333 673.561 296.5 524.517C-32.3333 677.093 -361.167 829.682 -690 982.259L-690 982.266Z" fill="#AB83FE"/>
<path fill-rule="evenodd" clip-rule="evenodd" d="M-690 722.619C-361.167 656.566 -32.3333 590.507 296.5 524.451C-32.3333 592.073 -361.167 659.701 -690 727.32" fill="#AB83FE"/>
<path fill-rule="evenodd" clip-rule="evenodd" d="M-690 659.369V656.22L296.5 524.465C-32.3332 569.433 -361.167 614.401 -690 659.37L-690 659.369Z" fill="#AB83FE"/>
<path fill-rule="evenodd" clip-rule="evenodd" d="M-690 611.992C-361.167 582.828 -32.3333 553.663 296.5 524.497C-32.3333 554.36 -361.167 584.223 -690 614.088" fill="#AB83FE"/>
<path fill-rule="evenodd" clip-rule="evenodd" d="M-690 583.936V582.532C-361.167 563.205 -32.3332 543.878 296.5 524.552L-690 583.936Z" fill="#AB83FE"/>
<path fill-rule="evenodd" clip-rule="evenodd" d="M-690 563.755V562.827L296.5 524.511L-690 563.755Z" fill="#AB83FE"/>
<path fill-rule="evenodd" clip-rule="evenodd" d="M-690 829.308V822.223L296.5 524.49L-690 829.311L-690 829.308Z" fill="#AB83FE"/>
<path fill-rule="evenodd" clip-rule="evenodd" d="M-690 550.341V549.716C-361.167 541.317 -32.3333 532.918 296.5 524.518L-690 550.341Z" fill="#AB83FE"/>
<path fill-rule="evenodd" clip-rule="evenodd" d="M-690 540.989V541.402C-361.167 535.795 -32.3333 530.183 296.5 524.535C-32.3333 530.02 -361.167 535.505 -690 540.989Z" fill="#AB83FE"/>
<path fill-rule="evenodd" clip-rule="evenodd" d="M-690 535.083V535.357C-361.167 531.723 -32.3333 528.089 296.5 524.455L-690 535.083Z" fill="#AB83FE"/>
<path fill-rule="evenodd" clip-rule="evenodd" d="M-690 531.268C-361.167 529.02 -32.3333 526.772 296.5 524.524L-690 531.441" fill="#AB83FE"/>
<path fill-rule="evenodd" clip-rule="evenodd" d="M-690 528.807V528.682L296.5 524.533C-32.3333 525.958 -361.167 527.382 -690 528.807Z" fill="#AB83FE"/>
<path fill-rule="evenodd" clip-rule="evenodd" d="M-300.661 1189C-101.604 967.5 97.453 746 296.5 524.5C296.5 524.5 296.5 524.5 296.5 524.5C106.003 746 -84.4843 967.5 -274.982 1189H-300.666L-300.661 1189Z" fill="#AB83FE"/>
<path fill-rule="evenodd" clip-rule="evenodd" d="M88.6978 1189C157.964 967.5 227.229 746 296.5 524.5C296.5 524.5 296.5 524.5 296.5 524.5C235.794 746 175.088 967.5 114.388 1189H88.7038L88.6978 1189Z" fill="#AB83FE"/>
<path fill-rule="evenodd" clip-rule="evenodd" d="M1283 1189C954.156 967.5 625.323 746 296.479 524.5C296.479 524.5 296.479 524.5 296.479 524.5C616.763 746 937.047 967.5 1257.32 1189H1283L1283 1189Z" fill="#AB83FE"/>
<path fill-rule="evenodd" clip-rule="evenodd" d="M893.64 1189C694.583 967.5 495.526 746 296.479 524.5C296.479 524.5 296.479 524.5 296.479 524.5C486.976 746 677.463 967.5 867.961 1189H893.645L893.64 1189Z" fill="#AB83FE"/>
<path fill-rule="evenodd" clip-rule="evenodd" d="M504.281 1189C435.014 967.5 365.75 746 296.479 524.5C296.479 524.5 296.479 524.5 296.479 524.5C357.185 746 417.891 967.5 478.591 1189H504.275L504.281 1189Z" fill="#AB83FE"/>
<path fill-rule="evenodd" clip-rule="evenodd" d="M1283 982.266V971.639C954.166 822.594 625.333 673.561 296.5 524.517C625.333 677.093 954.166 829.682 1283 982.259L1283 982.266Z" fill="#AB83FE"/>
<path fill-rule="evenodd" clip-rule="evenodd" d="M1283 722.619C954.167 656.566 625.333 590.507 296.5 524.451C625.333 592.073 954.167 659.701 1283 727.32" fill="#AB83FE"/>
<path fill-rule="evenodd" clip-rule="evenodd" d="M1283 659.369V656.22C954.166 612.302 625.333 568.383 296.489 524.465C625.323 569.433 954.156 614.401 1283 659.37L1283 659.369Z" fill="#AB83FE"/>
<path fill-rule="evenodd" clip-rule="evenodd" d="M1283 611.992C954.166 582.828 625.333 553.663 296.489 524.497C625.323 554.36 954.156 584.223 1283 614.088" fill="#AB83FE"/>
<path fill-rule="evenodd" clip-rule="evenodd" d="M1283 583.936V582.532C954.166 563.205 625.333 543.878 296.489 524.552C625.323 544.347 954.156 564.141 1283 583.936Z" fill="#AB83FE"/>
<path fill-rule="evenodd" clip-rule="evenodd" d="M1283 563.755V562.827C954.166 550.055 625.333 537.283 296.489 524.511C625.323 537.592 954.156 550.673 1283 563.755Z" fill="#AB83FE"/>
<path fill-rule="evenodd" clip-rule="evenodd" d="M1283 829.308V822.224C954.166 722.98 625.333 623.735 296.489 524.491C625.323 626.097 954.156 727.705 1283 829.312V829.308Z" fill="#AB83FE"/>
<path fill-rule="evenodd" clip-rule="evenodd" d="M1283 550.341V549.716C954.166 541.317 625.333 532.918 296.489 524.518C625.323 533.126 954.156 541.735 1283 550.341Z" fill="#AB83FE"/>
<path fill-rule="evenodd" clip-rule="evenodd" d="M1283 540.989V541.402C954.166 535.795 625.333 530.183 296.5 524.535C625.333 530.02 954.166 535.505 1283 540.989Z" fill="#AB83FE"/>
<path fill-rule="evenodd" clip-rule="evenodd" d="M1283 535.083V535.357C954.166 531.723 625.333 528.089 296.489 524.455C625.323 527.997 954.156 531.54 1283 535.083Z" fill="#AB83FE"/>
<path fill-rule="evenodd" clip-rule="evenodd" d="M1283 531.268C954.166 529.02 625.333 526.772 296.489 524.524C625.323 526.829 954.156 529.135 1283 531.441" fill="#AB83FE"/>
<path fill-rule="evenodd" clip-rule="evenodd" d="M1283 528.807V528.682C954.166 527.299 625.333 525.916 296.489 524.533C625.323 525.958 954.156 527.382 1283 528.807Z" fill="#AB83FE"/>
<path fill-rule="evenodd" clip-rule="evenodd" d="M-690 526.961V526.848L296.5 524.448C-32.3333 525.286 -361.167 526.123 -690 526.961Z" fill="#AB83FE"/>
<path fill-rule="evenodd" clip-rule="evenodd" d="M1283 526.961V526.848L296.5 524.448C625.333 525.286 954.166 526.124 1283 526.961Z" fill="#AB83FE"/>
<path fill-rule="evenodd" clip-rule="evenodd" d="M-690 525.114V524.998C-361.167 524.84 -32.3333 524.681 296.5 524.522C-32.3333 524.719 -361.167 524.917 -690 525.114Z" fill="#AB83FE"/>
<path fill-rule="evenodd" clip-rule="evenodd" d="M1283 525.114V524.998C954.166 524.84 625.333 524.681 296.5 524.522C625.333 524.719 954.166 524.917 1283 525.114Z" fill="#AB83FE"/>
<path fill-rule="evenodd" clip-rule="evenodd" d="M-690 525.853V525.738C-361.167 525.322 -32.3332 524.907 296.5 524.491L-690 525.853Z" fill="#AB83FE"/>
<path fill-rule="evenodd" clip-rule="evenodd" d="M1283 525.853V525.738C954.166 525.322 625.333 524.907 296.5 524.491L1283 525.853Z" fill="#AB83FE"/>
</g>
</g>
<defs>
<clipPath id="clip0_275_43">
<rect width="1973" height="1329" fill="white" transform="translate(-690 -140)"/>
</clipPath>
</defs>
</svg>
