<?xml version="1.0" encoding="UTF-8"?>
<svg version="1.1" xmlns="http://www.w3.org/2000/svg" width="892" height="321">
<path d="M0 0 C1.25916229 -0.00945648 2.51832458 -0.01891296 3.81564331 -0.02865601 C5.1949698 -0.02328049 6.57429344 -0.01712611 7.95361328 -0.01025391 C9.37549997 -0.0122768 10.79738565 -0.01519004 12.2192688 -0.01895142 C15.20698881 -0.02337899 18.19444013 -0.0169397 21.18212891 -0.00292969 C24.97557932 0.01400761 28.76838564 0.0044237 32.56181145 -0.01364708 C35.5047571 -0.02460711 38.4475561 -0.02098078 41.39050674 -0.0132637 C42.78647058 -0.01128706 44.18244852 -0.01362986 45.57839584 -0.02070236 C62.05372992 -0.08575517 76.74308801 2.87774572 89.11767578 14.41552734 C97.41243943 23.60161427 100.48041176 34.60761709 100.33642578 46.76318359 C100.32740234 47.68147949 100.31837891 48.59977539 100.30908203 49.54589844 C99.96731387 62.98165931 95.27740016 73.18538717 85.60205078 82.63037109 C83.7393634 84.27508442 81.85858282 85.86111042 79.89892578 87.38818359 C80.46765655 91.01066498 81.40088364 93.63343616 83.30517578 96.75927734 C83.79791992 97.57444824 84.29066406 98.38961914 84.79833984 99.22949219 C85.59062988 100.51460693 85.59062988 100.51460693 86.39892578 101.82568359 C86.93485352 102.71078613 87.47078125 103.59588867 88.02294922 104.5078125 C90.50795707 108.59011422 93.0335735 112.6337659 95.69580078 116.60302734 C96.1128125 117.22830322 96.52982422 117.8535791 96.95947266 118.49780273 C98.07644157 120.15560286 99.21358174 121.79976152 100.35205078 123.44287109 C102.11441235 126.79847872 102.543382 128.65657417 101.89892578 132.38818359 C97.76902689 136.58341915 93.02887637 135.83983441 87.48291016 135.89599609 C86.49230591 135.8926123 86.49230591 135.8926123 85.48168945 135.88916016 C83.47022252 135.88818785 81.46257643 135.92982236 79.45166016 135.97412109 C77.54030273 135.97798828 77.54030273 135.97798828 75.59033203 135.98193359 C74.42703369 135.98902344 73.26373535 135.99611328 72.06518555 136.00341797 C67.04148373 135.02726494 64.97955982 131.94203052 62.15722656 127.88378906 C61.64144043 127.01641113 61.1256543 126.1490332 60.59423828 125.25537109 C60.01029297 124.28341797 59.42634766 123.31146484 58.82470703 122.31005859 C58.23044922 121.30458984 57.63619141 120.29912109 57.02392578 119.26318359 C55.84017603 117.28072797 54.65528202 115.29895514 53.46923828 113.31787109 C52.88819336 112.34301758 52.30714844 111.36816406 51.70849609 110.36376953 C49.28415145 106.37727298 46.74237177 102.47095981 44.1796875 98.57226562 C42.89892578 96.38818359 42.89892578 96.38818359 42.89892578 94.38818359 C40.77420003 94.33431731 38.64908926 94.29545289 36.52392578 94.26318359 C35.34056641 94.23998047 34.15720703 94.21677734 32.93798828 94.19287109 C29.78738761 94.05952131 29.78738761 94.05952131 27.89892578 96.38818359 C27.70205101 99.07422552 27.6219986 101.66588481 27.62548828 104.35302734 C27.60520074 105.97347698 27.58434998 107.59391964 27.56298828 109.21435547 C27.5403671 111.77325315 27.52391164 114.331876 27.51806641 116.89086914 C27.50856035 119.35792923 27.47480851 121.82374509 27.43798828 124.29052734 C27.44303375 125.05622543 27.44807922 125.82192352 27.45327759 126.61082458 C27.39393403 129.80575667 27.33768622 131.85660089 25.26367188 134.36938477 C22.2208242 135.68032874 19.83807837 135.77666726 16.52392578 135.78662109 C15.29158203 135.79048828 14.05923828 135.79435547 12.78955078 135.79833984 C11.50564453 135.78673828 10.22173828 135.77513672 8.89892578 135.76318359 C6.97306641 135.78058594 6.97306641 135.78058594 5.00830078 135.79833984 C3.77595703 135.79447266 2.54361328 135.79060547 1.27392578 135.78662109 C0.14728516 135.7832373 -0.97935547 135.77985352 -2.14013672 135.77636719 C-5.50589222 135.33511131 -6.69472135 134.7382853 -9.10107422 132.38818359 C-9.60164547 130.01277924 -9.60164547 130.01277924 -9.60227966 127.15026855 C-9.6121138 126.06505417 -9.62194794 124.97983978 -9.63208008 123.86174011 C-9.62241211 122.6709938 -9.61274414 121.4802475 -9.6027832 120.25341797 C-9.60818619 118.99958817 -9.61358917 117.74575836 -9.61915588 116.45393372 C-9.62953209 113.01358932 -9.62192719 109.57420404 -9.60544467 106.13394356 C-9.59160634 102.53586549 -9.59805285 98.93781675 -9.60157776 95.33972168 C-9.60428086 89.29703722 -9.59079587 83.25455129 -9.56762695 77.21191406 C-9.54101643 70.22324954 -9.53926965 63.23491698 -9.55101532 56.24621916 C-9.56179022 49.52659573 -9.55560834 42.80709252 -9.54146004 36.08747864 C-9.53569769 33.22627423 -9.53578483 30.36515773 -9.54052544 27.50395203 C-9.54617867 23.51015638 -9.52698803 19.51669366 -9.50512695 15.52294922 C-9.5096286 14.33220291 -9.51413025 13.1414566 -9.51876831 11.91462708 C-9.50886368 10.82941269 -9.49895905 9.7441983 -9.48875427 8.62609863 C-9.48632438 7.68147011 -9.48389448 6.73684158 -9.48139095 5.76358795 C-8.58715375 0.17830926 -5.00629529 0.010776 0 0 Z M26.89892578 38.38818359 C26.29434628 40.52478163 26.29434628 40.52478163 26.36767578 42.79443359 C26.36251953 43.62072266 26.35736328 44.44701172 26.35205078 45.29833984 C26.36751953 46.15298828 26.38298828 47.00763672 26.39892578 47.88818359 C26.38345703 48.74283203 26.36798828 49.59748047 26.35205078 50.47802734 C26.35720703 51.30431641 26.36236328 52.13060547 26.36767578 52.98193359 C26.3721875 53.73152344 26.37669922 54.48111328 26.38134766 55.25341797 C27.12850807 58.33510223 28.37591375 59.50221114 30.89892578 61.38818359 C33.82131598 62.0010013 33.82131598 62.0010013 37.05517578 61.91943359 C38.83601562 61.92716797 38.83601562 61.92716797 40.65283203 61.93505859 C42.50714844 61.91185547 42.50714844 61.91185547 44.39892578 61.88818359 C45.63513672 61.90365234 46.87134766 61.91912109 48.14501953 61.93505859 C49.33224609 61.92990234 50.51947266 61.92474609 51.74267578 61.91943359 C52.82742188 61.91492188 53.91216797 61.91041016 55.02978516 61.90576172 C58.54542763 61.27155801 59.6819634 60.12467655 61.89892578 57.38818359 C64.67719314 52.98188696 64.53734142 48.43964735 63.89892578 43.38818359 C61.50828868 38.33106665 59.06401665 36.36174451 53.89892578 34.38818359 C50.01722231 33.93339413 46.17856079 33.92377195 42.27392578 33.95068359 C41.23751953 33.93070313 40.20111328 33.91072266 39.13330078 33.89013672 C38.13556641 33.89078125 37.13783203 33.89142578 36.10986328 33.89208984 C35.2054248 33.89023682 34.30098633 33.88838379 33.36914062 33.88647461 C30.08720089 34.55304766 28.90848052 35.74680002 26.89892578 38.38818359 Z " fill="#060606" transform="translate(506.10107421875,54.61181640625)"/>
<path d="M0 0 C1.24655617 -0.00956978 1.24655617 -0.00956978 2.51829529 -0.01933289 C3.41726028 -0.02044571 4.31622528 -0.02155853 5.24243164 -0.02270508 C6.16472061 -0.02603348 7.08700958 -0.02936188 8.0372467 -0.03279114 C9.98999533 -0.03785903 11.94275262 -0.04019951 13.89550781 -0.04003906 C16.88694493 -0.0422249 19.87801298 -0.06038023 22.86938477 -0.0793457 C24.76456579 -0.08227975 26.65974858 -0.08426447 28.55493164 -0.08520508 C29.45187241 -0.09239059 30.34881317 -0.09957611 31.27293396 -0.10697937 C32.10712357 -0.10390274 32.94131317 -0.10082611 33.80078125 -0.09765625 C34.53421249 -0.09908127 35.26764374 -0.10050629 36.02330017 -0.10197449 C37.96508789 0.14526367 37.96508789 0.14526367 40.96508789 2.14526367 C42.04947523 4.76638279 42.96756981 7.3275812 43.84008789 10.02026367 C44.46151215 11.86217815 45.0854124 13.70325831 45.71118164 15.54370117 C46.24074463 17.10749512 46.24074463 17.10749512 46.78100586 18.70288086 C49.07705898 25.37800437 51.49760459 32.00880731 53.90258789 38.64526367 C54.45620327 40.17535004 55.00975031 41.70546113 55.56323242 43.2355957 C57.04430455 47.32866646 58.52730235 51.42103683 60.01092529 55.51318359 C60.99943748 58.24001784 61.98741322 60.96704607 62.9753418 63.6940918 C64.70736032 68.47439219 66.44148543 73.25392498 68.17657471 78.03311157 C68.86697005 79.93584762 69.5567118 81.83882095 70.24578857 83.74203491 C73.42839683 92.53226366 76.61158497 101.31694831 80.01586914 110.02416992 C80.44931641 111.13888672 80.88276367 112.25360352 81.3293457 113.40209961 C82.09417115 115.35249799 82.87217162 117.2978157 83.66723633 119.23608398 C85.62839952 124.23675973 86.56656001 127.78622493 84.96508789 133.14526367 C80.10085865 136.38808316 74.40694429 135.51715411 68.71386719 135.51586914 C66.53834735 135.52024204 64.36485812 135.5565679 62.18969727 135.59448242 C60.80363648 135.60035111 59.41756608 135.60432015 58.03149414 135.60620117 C56.77280518 135.61441895 55.51411621 135.62263672 54.21728516 135.63110352 C50.96508789 135.14526367 50.96508789 135.14526367 48.67089844 133.50561523 C46.65752902 130.71969058 45.66677106 128.18877682 44.60571289 124.91870117 C44.21254883 123.72245117 43.81938477 122.52620117 43.41430664 121.29370117 C43.01856445 120.0484668 42.62282227 118.80323242 42.21508789 117.52026367 C41.80387695 116.26729492 41.39266602 115.01432617 40.96899414 113.72338867 C37.96508789 104.48213556 37.96508789 104.48213556 37.96508789 102.14526367 C24.10508789 102.14526367 10.24508789 102.14526367 -4.03491211 102.14526367 C-5.02491211 105.77526367 -6.01491211 109.40526367 -7.03491211 113.14526367 C-8.16607844 116.68530012 -9.31984719 120.19787091 -10.53491211 123.70776367 C-10.83010742 124.5952832 -11.12530273 125.48280273 -11.42944336 126.3972168 C-11.72206055 127.24348633 -12.01467773 128.08975586 -12.31616211 128.96166992 C-12.57461914 129.71907471 -12.83307617 130.47647949 -13.09936523 131.25683594 C-14.03491211 133.14526367 -14.03491211 133.14526367 -17.03491211 135.14526367 C-21.44333382 135.5553975 -25.86099094 135.51686793 -30.28613281 135.51586914 C-32.46165265 135.52024204 -34.63514188 135.5565679 -36.81030273 135.59448242 C-38.19636352 135.60035111 -39.58243392 135.60432015 -40.96850586 135.60620117 C-42.22719482 135.61441895 -43.48588379 135.62263672 -44.78271484 135.63110352 C-48.03491211 135.14526367 -48.03491211 135.14526367 -50.5390625 133.55395508 C-52.03491211 131.14526367 -52.03491211 131.14526367 -51.9128418 127.78271484 C-51.09809052 124.40702541 -50.16661896 121.21108337 -48.98803711 117.94604492 C-48.56184082 116.75503174 -48.13564453 115.56401855 -47.6965332 114.33691406 C-47.22615734 113.04380408 -46.75561196 111.75075576 -46.28491211 110.45776367 C-45.79427934 109.09525402 -45.30422078 107.73253748 -44.81469727 106.36962891 C-43.77180395 103.46987829 -42.72474296 100.5716791 -41.67456055 97.67456055 C-40.01703473 93.100453 -38.37311572 88.52151858 -36.73022461 83.94213867 C-31.6095258 69.68360056 -26.440577 55.44772098 -21.07446289 41.27929688 C-18.71080601 35.01753453 -16.46809468 28.72202549 -14.28491211 22.39526367 C-6.54474669 0.03405138 -6.54474669 0.03405138 0 0 Z M13.41430664 50.57495117 C11.31395674 54.30010006 10.07727856 58.20752691 8.77758789 62.27026367 C8.50495117 63.09397461 8.23231445 63.91768555 7.95141602 64.76635742 C6.49754582 68.87457953 6.49754582 68.87457953 5.96508789 73.14526367 C13.22508789 73.14526367 20.48508789 73.14526367 27.96508789 73.14526367 C25.31182885 60.21547821 25.31182885 60.21547821 18.96508789 49.14526367 C15.10369936 48.6933847 15.10369936 48.6933847 13.41430664 50.57495117 Z " fill="#060606" transform="translate(764.034912109375,54.854736328125)"/>
<path d="M0 0 C0.69891357 -0.0004985 1.39782715 -0.00099701 2.11791992 -0.00151062 C3.59394172 0.00082733 5.06996769 0.0105396 6.54589844 0.02709961 C8.80439933 0.05069661 11.06171962 0.04765855 13.3203125 0.04101562 C24.39365848 0.08405357 24.39365848 0.08405357 27.8125 2.36328125 C28.87039199 4.90879966 29.76384896 7.37590205 30.59985352 9.99414062 C30.86042542 10.78125931 31.12099731 11.56837799 31.38946533 12.37934875 C32.24975453 14.98551291 33.09533813 17.59621947 33.94140625 20.20703125 C34.53658555 22.01578006 35.13286801 23.82416621 35.73020935 25.63220215 C37.30169912 30.39611201 38.86159391 35.16372939 40.41809082 39.93255615 C42.91081859 47.5670318 45.41602854 55.1973701 47.9306469 62.82466125 C48.80804395 65.49408945 49.67747092 68.16602315 50.54627991 70.83825684 C51.08207137 72.46974228 51.61814313 74.10113571 52.15454102 75.73242188 C52.5153904 76.85303764 52.5153904 76.85303764 52.88352966 77.99629211 C54.20925056 82.04783632 54.20925056 82.04783632 56.8125 85.36328125 C59.33694734 85.64706604 59.33694734 85.64706604 61.8125 84.36328125 C63.14047553 81.748091 64.03960588 79.47420037 64.90625 76.703125 C65.30918526 75.50166084 65.30918526 75.50166084 65.72026062 74.27592468 C66.60419989 71.62366298 67.45806343 68.96267866 68.3125 66.30078125 C68.92040199 64.46145444 69.53020786 62.62275586 70.1418457 60.78466797 C73.01910772 52.10088065 75.80750721 43.38834007 78.60214233 34.6776886 C79.20324235 32.80486019 79.8051365 30.93228646 80.40786743 29.0599823 C81.83211779 24.63548384 83.24631977 20.20845465 84.63671875 15.77319336 C85.14689009 14.17033205 85.65729403 12.56754475 86.16796875 10.96484375 C86.39240158 10.2354509 86.61683441 9.50605804 86.84806824 8.75456238 C89.01557354 2.01468658 89.01557354 2.01468658 91.8125 0.36328125 C95.02709961 -0.04077148 95.02709961 -0.04077148 98.96484375 -0.0703125 C100.0096566 -0.07817528 100.0096566 -0.07817528 101.07557678 -0.0861969 C102.54735991 -0.092614 104.01919434 -0.09128404 105.4909668 -0.08276367 C107.73905156 -0.07426016 109.98458866 -0.10300196 112.23242188 -0.13476562 C113.66406174 -0.136378 115.09570609 -0.13579941 116.52734375 -0.1328125 C117.82792725 -0.13466553 119.12851074 -0.13651855 120.46850586 -0.13842773 C123.8125 0.36328125 123.8125 0.36328125 126.33032227 1.95678711 C128.00948939 4.68311727 128.08127147 6.13703571 127.42199707 9.2406311 C126.0998025 13.84533987 124.46451987 18.32340211 122.796875 22.8125 C122.18582161 24.48286819 122.18582161 24.48286819 121.56242371 26.1869812 C120.23536248 29.81057411 118.8989276 33.43063358 117.5625 37.05078125 C116.64322658 39.55629356 115.72453516 42.06200909 114.80688477 44.56811523 C112.98282124 49.54802358 111.15565245 54.52678238 109.32666016 59.50488281 C106.36143028 67.58361993 103.43639485 75.67651283 100.52450562 83.77459717 C99.75663283 85.90735862 98.98593164 88.03907437 98.21411133 90.17041016 C95.95315618 96.41496168 93.70214362 102.66228923 91.49241638 108.92518616 C90.49071423 111.75821552 89.47906639 114.58763173 88.46560669 117.41647339 C87.99530272 118.73701088 87.52956265 120.05918434 87.06881714 121.38308716 C86.44173209 123.18400131 85.79745617 124.97890207 85.15234375 126.7734375 C84.61661743 128.29142944 84.61661743 128.29142944 84.07006836 129.84008789 C82.58020095 132.82936758 81.82796267 133.90175287 78.8125 135.36328125 C75.73759353 135.80347885 72.69607604 135.80742036 69.59375 135.796875 C68.69885864 135.80211685 67.80396729 135.8073587 66.88195801 135.8127594 C64.99244218 135.81917463 63.1028864 135.81784906 61.21337891 135.80932617 C58.32251965 135.80081076 55.4336331 135.82959232 52.54296875 135.86132812 C50.70572976 135.86294012 48.86848727 135.86236263 47.03125 135.859375 C46.16761841 135.87060898 45.30398682 135.88184296 44.41418457 135.89341736 C38.50039397 135.82472695 38.50039397 135.82472695 35.39624023 133.74243164 C33.46817968 130.84603113 32.37465532 128.09899212 31.25390625 124.80078125 C31.02893967 124.15066071 30.80397308 123.50054016 30.57218933 122.83071899 C30.08557145 121.42040168 29.60421718 120.00825953 29.12756348 118.59454346 C28.09233128 115.52520174 27.03096661 112.46507795 25.97171021 109.40396118 C25.41605739 107.79698577 24.86177635 106.18953543 24.30880737 104.58163452 C21.4773549 96.35322545 18.52918382 88.16870917 15.5625 79.98828125 C15.03271099 78.52444491 14.50300806 77.06057741 13.97338867 75.59667969 C12.25572892 70.85125609 10.53439256 66.10717033 8.8125 61.36328125 C8.47593384 60.43584106 8.13936768 59.50840088 7.79260254 58.55285645 C5.25924007 51.5723903 2.72399583 44.5926094 0.1875 37.61328125 C-0.16042603 36.65576965 -0.50835205 35.69825806 -0.86682129 34.71173096 C-1.86124799 31.97561198 -2.8562915 29.2397182 -3.8515625 26.50390625 C-4.14477386 25.69708405 -4.43798523 24.89026184 -4.74008179 24.05899048 C-5.01873077 23.2934787 -5.29737976 22.52796692 -5.58447266 21.73925781 C-5.84995911 21.00896362 -6.11544556 20.27866943 -6.38897705 19.52624512 C-6.93090654 18.05831748 -7.48434165 16.59459633 -8.04803467 15.1348877 C-9.64040448 11.00997918 -10.80860931 7.81456466 -10.1875 3.36328125 C-7.6306568 -0.55275655 -4.36195661 -0.00995758 0 0 Z " fill="#070707" transform="translate(296.1875,54.63671875)"/>
<path d="M0 0 C18.71483502 15.57557237 32.89634095 37.43376022 35.421875 62.015625 C36.69457801 84.39764339 31.70837902 103.88298995 17.609375 121.765625 C10.0382869 130.16228388 -0.92640664 136.36076422 -12.26171875 137.21875 C-22.08436633 137.385944 -22.08436633 137.385944 -26.578125 134.015625 C-30.25503068 128.99052057 -30.08939553 123.99011614 -29.578125 118.015625 C-28.6553324 113.36775634 -27.41722518 108.82740958 -26.140625 104.265625 C-25.49389915 101.89643131 -24.8492926 99.52665786 -24.20703125 97.15625 C-23.7749939 95.60212402 -23.7749939 95.60212402 -23.33422852 94.01660156 C-18.38743191 74.38275467 -22.01049488 53.65017334 -31.578125 36.015625 C-40.95015248 20.8988577 -53.02711969 11.52862491 -70.42578125 7.328125 C-80.70761302 5.41769432 -91.16532764 5.8236432 -101.578125 6.015625 C-101.578125 2.015625 -101.578125 2.015625 -99.8828125 -0.09765625 C-71.78812263 -25.52741573 -29.17840276 -21.73693091 0 0 Z " fill="#829141" transform="translate(241.578125,115.984375)"/>
<path d="M0 0 C5.70267702 3.8821431 10.24396302 8.40051455 14.8046875 13.51171875 C29.75384305 30.20390493 50.35026838 40.86450252 72.80078125 42.83984375 C89.39638 43.20525143 104.09632293 38.64592729 116.4921875 27.63671875 C117.10835937 27.12625 117.72453125 26.61578125 118.359375 26.08984375 C124.15599236 20.9076144 127.65933265 14.04250129 131.48486328 7.375 C133.39831148 4.07307291 135.45217247 0.86125863 137.4921875 -2.36328125 C138.4821875 -2.03328125 139.4721875 -1.70328125 140.4921875 -1.36328125 C145.22743427 8.28200328 143.82490082 24.65916568 140.9296875 34.69921875 C140.17905491 36.70266769 139.36395531 38.68293324 138.4921875 40.63671875 C137.97140625 41.80460937 137.450625 42.9725 136.9140625 44.17578125 C133.55763549 51.37018451 129.74044975 58.62683533 124.4921875 64.63671875 C123.8321875 64.63671875 123.1721875 64.63671875 122.4921875 64.63671875 C122.27949219 65.1884375 122.06679687 65.74015625 121.84765625 66.30859375 C113.69250201 80.31571746 94.11750309 87.73450461 79.3671875 91.7265625 C53.46428281 97.81061169 28.81991271 93.4700199 6.4296875 79.76171875 C-6.60303793 70.87576959 -14.43088338 59.95469172 -20.5078125 45.63671875 C-20.889375 44.78722656 -21.2709375 43.93773437 -21.6640625 43.0625 C-25.6057679 32.6060315 -25.17752773 17.96395941 -20.71484375 7.80859375 C-18.55037124 3.91394418 -16.21916787 0.9940006 -12.6953125 -1.80078125 C-7.86828178 -3.04201772 -4.28451678 -2.32912205 0 0 Z " fill="#E8D412" transform="translate(67.5078125,180.36328125)"/>
<path d="M0 0 C5.53388559 5.24957587 10.02250129 10.70346186 10.4375 18.5625 C10.30766038 21.65787655 9.99500529 23.00936507 8.5 25.8125 C1.5222382 31.91804158 -7.17569318 33.48984147 -15.9375 35.6875 C-31.98230076 39.87189753 -45.62390347 45.72765402 -58 57 C-58.91072266 57.7734375 -58.91072266 57.7734375 -59.83984375 58.5625 C-71.13899594 68.81116412 -79.28081673 85.14730649 -80.203125 100.34765625 C-80.41666893 117.27101281 -75.07855917 130.72776392 -66 144.8125 C-64 148 -64 148 -64 151 C-74.48037423 151.91133689 -83.11124356 146.41651574 -91 140 C-107.97201173 124.8600495 -117.29488399 104.85199075 -118.8125 82.1875 C-119.96810261 57.80809457 -111.47605347 33.14489866 -95 15 C-94.22785156 14.14664063 -93.45570312 13.29328125 -92.66015625 12.4140625 C-84.11784777 3.42642041 -74.42768244 -2.34999709 -63 -7 C-62.28585938 -7.29777344 -61.57171875 -7.59554687 -60.8359375 -7.90234375 C-41.14621205 -15.3136449 -16.64184545 -13.29729304 0 0 Z " fill="#D76720" transform="translate(189,58)"/>
<path d="M0 0 C2.23748198 0.0009705 4.47151114 -0.04060565 6.70849609 -0.08496094 C8.13687439 -0.09016983 9.56526456 -0.0928561 10.99365234 -0.09277344 C12.93667236 -0.1034082 12.93667236 -0.1034082 14.91894531 -0.11425781 C19.30962912 0.66702472 20.63834469 2.03758411 23.37646484 5.50097656 C25.02636719 8.26489258 25.02636719 8.26489258 26.46240234 11.25488281 C27.00123047 12.35767578 27.54005859 13.46046875 28.09521484 14.59667969 C28.64177734 15.74072266 29.18833984 16.88476562 29.75146484 18.06347656 C31.92182027 22.56255066 34.12251353 27.04314728 36.37646484 31.50097656 C36.9581543 32.66097168 37.53984375 33.8209668 38.13916016 35.01611328 C38.72536133 36.1132666 39.3115625 37.21041992 39.91552734 38.34082031 C40.4358252 39.33331787 40.95612305 40.32581543 41.4921875 41.34838867 C43.25688904 43.85877662 43.25688904 43.85877662 46.59277344 43.82348633 C47.97070068 43.66384399 47.97070068 43.66384399 49.37646484 43.50097656 C49.63766113 42.64882568 49.89885742 41.7966748 50.16796875 40.91870117 C51.42609547 37.36061714 52.97120524 34.16458209 54.71240234 30.81738281 C55.19333847 29.88949196 55.19333847 29.88949196 55.68399048 28.94285583 C56.35938589 27.64174905 57.0368594 26.34171908 57.71630859 25.04272461 C58.74557075 23.07474623 59.76860525 21.10363412 60.79052734 19.13183594 C69.80853469 1.78494164 69.80853469 1.78494164 72.37646484 0.50097656 C74.82201066 0.36607428 77.23786468 0.28844269 79.68505859 0.26269531 C80.40758316 0.25462357 81.13010773 0.24655182 81.87452698 0.23823547 C83.40355025 0.22440213 84.93260431 0.21367661 86.46166992 0.20581055 C88.80169857 0.18856695 91.14032508 0.14467461 93.47998047 0.10058594 C94.96499612 0.09046145 96.45002377 0.08194458 97.93505859 0.07519531 C98.98517372 0.04893318 98.98517372 0.04893318 100.0565033 0.0221405 C103.29021011 0.03660593 104.94315119 0.09207949 107.34350586 2.35717773 C108.87337363 5.53225902 108.37427657 7.12933856 107.37646484 10.50097656 C106.03541958 13.38835925 104.47544817 16.12472791 102.87646484 18.87597656 C102.42505127 19.66979736 101.9736377 20.46361816 101.50854492 21.28149414 C100.57954201 22.91444986 99.64700331 24.5453991 98.7109375 26.17431641 C97.16169013 28.87543741 95.63763267 31.58997418 94.1171875 34.30737305 C92.63949259 36.94660329 91.15248471 39.58054814 89.66601562 42.21484375 C88.74188214 43.85315992 87.81846166 45.49187836 86.89550781 47.13085938 C85.26532652 50.02572397 83.63352715 52.91967208 82.00146484 55.81347656 C81.26222778 57.12674927 81.26222778 57.12674927 80.50805664 58.46655273 C79.75069214 59.80810425 79.75069214 59.80810425 78.97802734 61.17675781 C78.44218018 62.15080566 77.90633301 63.12485352 77.35424805 64.12841797 C75.83082204 66.72619687 74.25642713 69.15071047 72.54516602 71.61962891 C63.87662455 84.56265232 62.94203938 95.18255061 63.43896484 110.50097656 C63.5004088 113.62377511 63.54585816 116.74558767 63.57017517 119.86889648 C63.58907313 121.79132822 63.6312967 123.71371193 63.69996643 125.63500977 C63.81570438 131.93587967 63.81570438 131.93587967 61.76098633 134.5793457 C56.56225845 136.58868304 50.87122533 135.96881912 45.37646484 135.93847656 C44.09255859 135.95845703 42.80865234 135.9784375 41.48583984 135.99902344 C40.25349609 135.99837891 39.02115234 135.99773437 37.75146484 135.99707031 C36.62482422 135.99892334 35.49818359 136.00077637 34.33740234 136.00268555 C31.37646484 135.50097656 31.37646484 135.50097656 28.98974609 134.07714844 C26.49190219 130.08846065 27.0038515 126.38663937 27.18896484 121.78613281 C27.22389621 119.81077259 27.25492113 117.83534024 27.2824707 115.85986328 C27.30952591 114.31585846 27.30952591 114.31585846 27.33712769 112.74066162 C27.55541445 95.1100682 27.45729382 81.38802058 16.25195312 67.06787109 C12.82298684 62.37480268 10.1063929 57.23679021 7.28509521 52.16427612 C5.92949681 49.73696652 4.54863795 47.32453336 3.16674805 44.91212463 C-1.47595582 36.8062112 -6.04313134 28.65823094 -10.53320312 20.46679688 C-11.33759066 19.01652181 -12.15653728 17.57429925 -12.98339844 16.13671875 C-13.43827637 15.34040039 -13.8931543 14.54408203 -14.36181641 13.72363281 C-14.78116455 12.99797119 -15.2005127 12.27230957 -15.63256836 11.5246582 C-17.02368209 8.68382507 -17.21271034 6.59414626 -16.62353516 3.50097656 C-13.17614374 -1.68637915 -5.56156566 -0.01705628 0 0 Z " fill="#080808" transform="translate(626.62353515625,54.4990234375)"/>
<path d="M0 0 C1.28519531 0.00064453 2.57039063 0.00128906 3.89453125 0.00195312 C4.56307129 0.01025146 5.23161133 0.0185498 5.92041016 0.02709961 C7.96166452 0.05069933 10.00161255 0.04765778 12.04296875 0.04101562 C22.0683095 0.09632091 22.0683095 0.09632091 25.46875 2.36328125 C25.84627342 4.63125515 25.84627342 4.63125515 25.84970093 7.51890564 C25.86239014 9.15728645 25.86239014 9.15728645 25.87533569 10.82876587 C25.869263 12.03245819 25.86319031 13.23615051 25.85693359 14.47631836 C25.86219055 15.73975571 25.86744751 17.00319305 25.87286377 18.30491638 C25.88656971 21.77605038 25.88122506 25.24691763 25.87172651 28.71805644 C25.86414512 32.34684021 25.87117143 35.97560074 25.87588501 39.60438538 C25.88134772 45.70008454 25.87413824 51.79567478 25.85986328 57.89135742 C25.84354301 64.94190647 25.84881853 71.99219519 25.8653425 79.0427379 C25.87895149 85.09120538 25.88087971 91.13959442 25.87302649 97.18807226 C25.86834577 100.80267546 25.86773582 104.41715627 25.87763596 108.03175163 C25.88790174 112.06160803 25.87367786 116.09101501 25.85693359 120.12084961 C25.86604263 121.92335175 25.86604263 121.92335175 25.87533569 123.76226807 C25.86687622 124.85734177 25.85841675 125.95241547 25.84970093 127.08067322 C25.84856985 128.03397491 25.84743877 128.98727659 25.84627342 129.96946621 C25.46875 132.36328125 25.46875 132.36328125 24.12963295 134.16918278 C21.50493676 136.05621865 19.1241336 135.75258176 15.9375 135.76171875 C14.65230469 135.76558594 13.36710937 135.76945313 12.04296875 135.7734375 C11.37442871 135.76715332 10.70588867 135.76086914 10.01708984 135.75439453 C7.9755567 135.73833479 5.93600292 135.75424796 3.89453125 135.7734375 C2.60933594 135.76957031 1.32414062 135.76570312 0 135.76171875 C-1.18013672 135.75833496 -2.36027344 135.75495117 -3.57617188 135.75146484 C-6.53125 135.36328125 -6.53125 135.36328125 -8.19213295 134.16638947 C-10.00430388 131.72631876 -9.90857795 130.15112584 -9.91220093 127.12536621 C-9.9206604 126.04015182 -9.92911987 124.95493744 -9.93783569 123.83683777 C-9.931763 122.64609146 -9.92569031 121.45534515 -9.91943359 120.22851562 C-9.92731903 118.34777092 -9.92731903 118.34777092 -9.93536377 116.42903137 C-9.94631739 112.98884458 -9.94373303 109.54919792 -9.93422651 106.10904121 C-9.92663745 102.5109598 -9.93367342 98.91290165 -9.93838501 95.31481934 C-9.94384478 89.27217458 -9.93664522 83.22963978 -9.92236328 77.18701172 C-9.90603626 70.19835711 -9.91132461 63.20996506 -9.9278425 56.22131681 C-9.94145113 50.22378398 -9.9433801 44.22633023 -9.93552649 38.22878695 C-9.93084651 34.6454974 -9.93023393 31.06233132 -9.94013596 27.47904968 C-9.95040118 23.48527805 -9.93617829 19.49180111 -9.91943359 15.49804688 C-9.92550629 14.30730057 -9.93157898 13.11655426 -9.93783569 11.88972473 C-9.92937622 10.80451035 -9.92091675 9.71929596 -9.91220093 8.60119629 C-9.91106985 7.65656776 -9.90993877 6.71193924 -9.90877342 5.73868561 C-9.53125 3.36328125 -9.53125 3.36328125 -8.19213295 1.55918121 C-5.56566935 -0.33197416 -3.18920211 -0.00805574 0 0 Z " fill="#020202" transform="translate(451.53125,54.63671875)"/>
<path d="M0 0 C0.99 0.33 1.98 0.66 3 1 C7.73524677 10.64528453 6.33271332 27.02244693 3.4375 37.0625 C2.68686741 39.06594894 1.87176781 41.04621449 1 43 C0.47921875 44.16789062 -0.0415625 45.33578125 -0.578125 46.5390625 C-3.93455201 53.73346576 -7.75173775 60.99011658 -13 67 C-13.66 67 -14.32 67 -15 67 C-15.31904297 67.82757813 -15.31904297 67.82757813 -15.64453125 68.671875 C-21.72952585 79.12333547 -36.74334123 87.38630272 -47.94921875 90.93359375 C-50.4375 91.5 -50.4375 91.5 -54 92 C-49.76183463 86.93376232 -45.32591037 82.19961931 -40.625 77.5625 C-39.98433594 76.92634766 -39.34367187 76.29019531 -38.68359375 75.63476562 C-37.12469121 74.08749668 -35.56348584 72.54263508 -34 71 C-35.98 70.01 -35.98 70.01 -38 69 C-38 69.66 -38 70.32 -38 71 C-41.96 71 -45.92 71 -50 71 C-50 70.34 -50 69.68 -50 69 C-52.475 69.495 -52.475 69.495 -55 70 C-55 69.34 -55 68.68 -55 68 C-55.78375 67.9175 -56.5675 67.835 -57.375 67.75 C-74.41962404 64.22352606 -87.54953531 52.04352715 -100.0625 40.6875 C-100.62308105 40.18387939 -101.18366211 39.68025879 -101.76123047 39.16137695 C-104.47847673 36.65697747 -106.66611677 34.48798038 -108 31 C-104.57702025 31.75313034 -101.76912048 33.08865194 -98.66967773 34.73022461 C-78.82962276 45.23183222 -59.68425533 47.21245398 -38.1015625 41.19140625 C-31.36638787 38.80116289 -26.29974821 34.70689502 -21 30 C-20.38382812 29.48953125 -19.76765625 28.9790625 -19.1328125 28.453125 C-13.33619514 23.27089565 -9.83285485 16.40578254 -6.00732422 9.73828125 C-4.09387602 6.43635416 -2.04001503 3.22453988 0 0 Z M-33 68 C-32 70 -32 70 -32 70 Z " fill="#AFC729" transform="translate(205,178)"/>
<path d="M0 0 C0.495 1.485 0.495 1.485 1 3 C0.27296875 3.37769531 -0.4540625 3.75539063 -1.203125 4.14453125 C-19.27308458 14.03667579 -31.36785084 28.48574417 -38 48 C-38.26683594 48.72703125 -38.53367187 49.4540625 -38.80859375 50.203125 C-43.47521876 65.00759056 -38.79825638 80.14074199 -32.0625 93.33056641 C-30.1782623 96.92021368 -28.19783984 100.40270848 -26 103.8125 C-24 107 -24 107 -24 110 C-34.4696897 110.9104078 -43.12656091 105.42531042 -51 99 C-56.04890495 94.40355737 -60.67312069 90.01191696 -64 84 C-63.01 83.505 -63.01 83.505 -62 83 C-62.34933594 82.19175781 -62.69867188 81.38351563 -63.05859375 80.55078125 C-63.51363281 79.48214844 -63.96867187 78.41351563 -64.4375 77.3125 C-65.11619141 75.72888672 -65.11619141 75.72888672 -65.80859375 74.11328125 C-69.81808732 63.63601445 -69.93013976 49.33387851 -65.6875 38.9375 C-63.44108559 34.23554552 -60.6577583 31.49922288 -56.6875 28.25 C-53.48190762 25.54697931 -50.85742287 22.60583388 -48.26171875 19.3203125 C-47.63716797 18.66675781 -47.63716797 18.66675781 -47 18 C-46.34 18 -45.68 18 -45 18 C-44.34 17.34 -43.68 16.68 -43 16 C-37.63931629 12.13532105 -32.73951929 9 -26 9 C-25.67 8.34 -25.34 7.68 -25 7 C-23.68 7 -22.36 7 -21 7 C-20.67 6.34 -20.34 5.68 -20 5 C-17.2108508 4.03113765 -14.46276786 3.1725426 -11.625 2.375 C-10.84382813 2.14554687 -10.06265625 1.91609375 -9.2578125 1.6796875 C-6.0273242 0.75036895 -3.38437082 0 0 0 Z " fill="#DA721E" transform="translate(149,99)"/>
<path d="M0 0 C-0.33 0.66 -0.66 1.32 -1 2 C-0.07960937 2.13535156 0.84078125 2.27070312 1.7890625 2.41015625 C16.00196105 4.82721741 29.80687777 10.06073505 38.5859375 22.19140625 C41.62969768 27.24967823 42.98543186 32.23240067 44 38 C44.30164063 39.05767578 44.30164063 39.05767578 44.609375 40.13671875 C45 42 45 42 44 44 C44.66 44 45.32 44 46 44 C45.74118166 61.6375772 44.4082047 78.86212897 40 96 C39.34 96 38.68 96 38 96 C37.94392578 95.14341797 37.94392578 95.14341797 37.88671875 94.26953125 C36.04788537 71.5905862 27.74715826 50.6121503 11 35 C-5.17102416 22.62953912 -24.58502229 22.64204409 -44 23 C-44 19 -44 19 -42.3046875 16.88671875 C-30.79621836 6.46988897 -15.90425269 -1.10959902 0 0 Z " fill="#916C3D" transform="translate(184,99)"/>
<path d="M0 0 C2.64 0 5.28 0 8 0 C8.34933594 0.84304687 8.69867188 1.68609375 9.05859375 2.5546875 C9.51363281 3.65039062 9.96867187 4.74609375 10.4375 5.875 C11.11619141 7.51082031 11.11619141 7.51082031 11.80859375 9.1796875 C12.49543463 10.80558624 13.21065887 12.42131774 14 14 C14.26554687 13.32453125 14.53109375 12.6490625 14.8046875 11.953125 C15.15789062 11.06109375 15.51109375 10.1690625 15.875 9.25 C16.22304688 8.36828125 16.57109375 7.4865625 16.9296875 6.578125 C17.8646709 4.3259752 18.87780794 2.16350541 20 0 C22.64 0 25.28 0 28 0 C28 7.92 28 15.84 28 24 C26.35 24 24.7 24 23 24 C22.67 20.04 22.34 16.08 22 12 C20.35 15.96 18.7 19.92 17 24 C15.02 24 13.04 24 11 24 C9.35 19.71 7.7 15.42 6 11 C5.67 15.29 5.34 19.58 5 24 C3.35 24 1.7 24 0 24 C0 16.08 0 8.16 0 0 Z " fill="#000000" transform="translate(465,225)"/>
<path d="M0 0 C4.95151767 3.81974221 4.95151767 3.81974221 5.8046875 6.95703125 C6.35665719 12.40145953 6.48521701 16.02521044 3.1875 20.6875 C0.37503235 23.70829859 -2.63682731 24.38445468 -6.71875 24.75 C-10.29727428 24.64317838 -12.76327102 23.4811641 -15.8125 21.6875 C-18.70295487 18.61056417 -19.05374189 15.83462187 -19.25 11.75 C-19.10227244 7.02975286 -18.0348235 4.26785945 -14.8125 0.6875 C-10.55449131 -2.65807826 -4.66310716 -2.17611667 0 0 Z M-10.625 5.1875 C-13.12222914 7.58287114 -13.12222914 7.58287114 -13.3125 11.1875 C-12.69628843 15.57574104 -12.69628843 15.57574104 -9.8125 18.6875 C-6.66018868 19.14721207 -4.74313634 19.26513635 -2 17.5625 C-0.30193073 14.881338 0.0608144 12.85464007 0.1875 9.6875 C-1.12277059 6.41182354 -1.94958805 5.07353955 -5.1875 3.625 C-7.95746067 3.49420452 -7.95746067 3.49420452 -10.625 5.1875 Z " fill="#000000" transform="translate(515.8125,225.3125)"/>
<path d="M0 0 C2.125 1.6875 2.125 1.6875 4.125 4.6875 C1.125 6.6875 1.125 6.6875 -0.75 6.375 C-1.45125 6.148125 -2.1525 5.92125 -2.875 5.6875 C-6.3464617 4.81963458 -8.45335977 4.71610214 -11.875 5.6875 C-12.16029291 9.06663601 -12.30846785 12.31728743 -11.875 15.6875 C-9.83783266 18.07691123 -9.83783266 18.07691123 -6.875 18.6875 C-4.13260857 18.47420551 -4.13260857 18.47420551 -1.875 17.6875 C-1.875 17.0275 -1.875 16.3675 -1.875 15.6875 C-3.525 15.6875 -5.175 15.6875 -6.875 15.6875 C-6.875 14.0375 -6.875 12.3875 -6.875 10.6875 C-3.245 10.6875 0.385 10.6875 4.125 10.6875 C4.125 14.9775 4.125 19.2675 4.125 23.6875 C1.91902076 23.93831682 -0.29002579 24.16223851 -2.5 24.375 C-3.72976563 24.50261719 -4.95953125 24.63023437 -6.2265625 24.76171875 C-10.30087683 24.67883655 -12.440647 23.81881907 -15.875 21.6875 C-19.30266919 17.91706389 -19.38353701 14.01980162 -19.23046875 9.12890625 C-18.59561889 4.76867368 -16.53210832 1.98951368 -13.125 -0.6875 C-8.40647208 -1.9982022 -4.40018032 -2.00877797 0 0 Z " fill="#000000" transform="translate(791.875,225.3125)"/>
<path d="M0 0 C4.06315948 2.10682343 6.30306137 3.77294116 8 8 C8.73886323 12.24135913 8.83844091 16.22747852 6.97265625 20.171875 C4.30948664 23.74244035 1.92353758 25.41394066 -2.5 26.125 C-6.73302739 26.2601723 -9.50530367 25.51943224 -13 23 C-16.45756091 19.08749687 -17.61875297 16.05791301 -17.31640625 10.95703125 C-16.8023249 7.77734292 -15.8404237 5.63794064 -14 3 C-9.57740996 -0.08552794 -5.25936606 -0.95339106 0 0 Z M-8.75 7 C-11.11852241 10.15802988 -11.32998474 10.53539624 -10.9375 14.1875 C-10.35012654 17.99507525 -10.35012654 17.99507525 -8 20 C-4.54213985 20.50007794 -4.54213985 20.50007794 -1 20 C1.58859984 17.82891626 1.93540857 16.37947467 2.5 13.0625 C1.83115743 8.96583926 0.20728245 7.53599077 -3 5 C-6.1623599 4.70591415 -6.1623599 4.70591415 -8.75 7 Z " fill="#000000" transform="translate(763,224)"/>
<path d="M0 0 C4.95151767 3.81974221 4.95151767 3.81974221 5.8046875 6.95703125 C6.35665719 12.40145953 6.48521701 16.02521044 3.1875 20.6875 C0.37503235 23.70829859 -2.63682731 24.38445468 -6.71875 24.75 C-10.29727428 24.64317838 -12.76327102 23.4811641 -15.8125 21.6875 C-18.70295487 18.61056417 -19.05374189 15.83462187 -19.25 11.75 C-19.10227244 7.02975286 -18.0348235 4.26785945 -14.8125 0.6875 C-10.55449131 -2.65807826 -4.66310716 -2.17611667 0 0 Z M-10.625 5.1875 C-13.12222914 7.58287114 -13.12222914 7.58287114 -13.3125 11.1875 C-12.69628843 15.57574104 -12.69628843 15.57574104 -9.8125 18.6875 C-6.66018868 19.14721207 -4.74313634 19.26513635 -2 17.5625 C-0.30193073 14.881338 0.0608144 12.85464007 0.1875 9.6875 C-1.12277059 6.41182354 -1.94958805 5.07353955 -5.1875 3.625 C-7.95746067 3.49420452 -7.95746067 3.49420452 -10.625 5.1875 Z " fill="#000000" transform="translate(719.8125,225.3125)"/>
<path d="M0 0 C3.75212276 2.01502889 5.63644095 3.45466142 8 7 C8.6557771 12.35297125 8.90542245 17.32329175 6.3125 22.125 C2.34476476 25.34208263 -0.43215092 26.21117573 -5.5 25.875 C-9.64420699 25.30171803 -12.03691844 24.05567786 -15 21 C-17.10066847 16.79866307 -16.54135038 11.56281034 -16 7 C-14.6436659 4.19830602 -13.42182535 3.08389624 -11 1 C-7.27599129 -0.24133624 -3.86824 -0.54111486 0 0 Z M-8.25 6.5 C-10.85697087 10.22424411 -10.49998025 12.50017778 -10 17 C-9.03882095 19.12870693 -9.03882095 19.12870693 -7 20 C-3.91184125 20.38601984 -1.89815624 20.47901666 0.875 19 C2.68374504 15.78445326 2.64808954 12.53956594 2 9 C0.41473019 6.41290128 0.41473019 6.41290128 -2 5 C-5.89599371 4.63019987 -5.89599371 4.63019987 -8.25 6.5 Z " fill="#000000" transform="translate(453,224)"/>
<path d="M0 0 C4.05126432 2.10065557 6.32990997 3.76758006 8 8 C8.56316446 12.49800187 8.48349065 16.66329056 6.9375 20.9375 C3.84618025 24.22825973 0.5043238 25.88119906 -4.05859375 26.09765625 C-8.81738262 25.72882762 -11.74703977 24.44431083 -15 21 C-17.41639197 17.15574004 -17.2176184 13.58407739 -16.61328125 9.22265625 C-15.58947374 5.51216918 -13.77548746 3.64332139 -11 1 C-7.27348227 -0.24217258 -3.87057926 -0.5341253 0 0 Z M-8.125 6.0625 C-10.87527029 8.90444597 -10.93291588 11.1091212 -11 15 C-10.20572041 18.01950153 -10.20572041 18.01950153 -8 20 C-4.5 20.75 -4.5 20.75 -1 20 C1.84223083 17.70787837 1.98284286 16.12009999 2.5 12.5 C2.32636727 8.87312506 2.32636727 8.87312506 -0.3125 6.5625 C-3.45222785 4.73707683 -4.8508291 4.42541455 -8.125 6.0625 Z " fill="#000000" transform="translate(400,224)"/>
<path d="M0 0 C2.31 0 4.62 0 7 0 C8.92409498 2.24838066 10.105419 3.94219177 11.4375 6.5 C11.78748047 7.12003906 12.13746094 7.74007812 12.49804688 8.37890625 C13.35569369 9.9062225 14.18111194 11.45155713 15 13 C15.33 8.71 15.66 4.42 16 0 C17.65 0 19.3 0 21 0 C21 7.92 21 15.84 21 24 C18.69 24 16.38 24 14 24 C10.04 17.07 10.04 17.07 6 10 C5.67 14.62 5.34 19.24 5 24 C3.35 24 1.7 24 0 24 C0 16.08 0 8.16 0 0 Z " fill="#000000" transform="translate(676,225)"/>
<path d="M0 0 C2.31 0 4.62 0 7 0 C8.92409498 2.24838066 10.105419 3.94219177 11.4375 6.5 C11.78748047 7.12003906 12.13746094 7.74007812 12.49804688 8.37890625 C13.35569369 9.9062225 14.18111194 11.45155713 15 13 C15.33 8.71 15.66 4.42 16 0 C17.65 0 19.3 0 21 0 C21 7.92 21 15.84 21 24 C18.69 24 16.38 24 14 24 C12.07590502 21.75161934 10.894581 20.05780823 9.5625 17.5 C9.21251953 16.87996094 8.86253906 16.25992188 8.50195312 15.62109375 C7.64430631 14.0937775 6.81888806 12.54844287 6 11 C5.67 15.29 5.34 19.58 5 24 C3.35 24 1.7 24 0 24 C0 16.08 0 8.16 0 0 Z " fill="#000000" transform="translate(412,225)"/>
<path d="M0 0 C1.98 0 3.96 0 6 0 C6 2.97 6 5.94 6 9 C9.3 9 12.6 9 16 9 C16 6.03 16 3.06 16 0 C17.98 0 19.96 0 22 0 C22 7.92 22 15.84 22 24 C20.02 24 18.04 24 16 24 C16 20.7 16 17.4 16 14 C12.7 14 9.4 14 6 14 C6 17.3 6 20.6 6 24 C4.02 24 2.04 24 0 24 C0 16.08 0 8.16 0 0 Z " fill="#000000" transform="translate(649,225)"/>
<path d="M0 0 C2.31 0 4.62 0 7 0 C8.50548369 3.78951244 10.00345314 7.58195031 11.5 11.375 C11.92925781 12.45523438 12.35851562 13.53546875 12.80078125 14.6484375 C13.40986328 16.1953125 13.40986328 16.1953125 14.03125 17.7734375 C14.40830078 18.72653809 14.78535156 19.67963867 15.17382812 20.66162109 C16 23 16 23 16 25 C14.02 25 12.04 25 10 25 C9.34 23.68 8.68 22.36 8 21 C5.03 21 2.06 21 -1 21 C-1.66 22.32 -2.32 23.64 -3 25 C-4.98 25 -6.96 25 -9 25 C-8.38965243 21.51423718 -7.48391539 18.4128077 -6.15234375 15.13671875 C-5.61577148 13.80737305 -5.61577148 13.80737305 -5.06835938 12.45117188 C-4.50858398 11.0831543 -4.50858398 11.0831543 -3.9375 9.6875 C-3.56044922 8.75615234 -3.18339844 7.82480469 -2.79492188 6.86523438 C-1.86716875 4.57521083 -0.93541999 2.28690004 0 0 Z M3 7 C1.74335022 9.90600261 1 11.79604584 1 15 C2.65 15 4.3 15 6 15 C5.34 12.36 4.68 9.72 4 7 C3.67 7 3.34 7 3 7 Z " fill="#000000" transform="translate(321,224)"/>
<path d="M0 0 C1.98 0 3.96 0 6 0 C6.06058594 1.21558594 6.12117187 2.43117187 6.18359375 3.68359375 C6.26798332 5.26824228 6.3526321 6.85287702 6.4375 8.4375 C6.47681641 9.23994141 6.51613281 10.04238281 6.55664062 10.86914062 C6.4054296 14.75239561 6.4054296 14.75239561 8 18 C10.5 18.16666667 10.5 18.16666667 13 18 C15.11925604 15.88074396 14.41831017 11.3803907 14.5625 8.4375 C14.60568359 7.63119141 14.64886719 6.82488281 14.69335938 5.99414062 C14.79975262 3.99631195 14.90040888 1.9981793 15 0 C16.98 0 18.96 0 21 0 C21.08120751 2.89640118 21.14059421 5.79050912 21.1875 8.6875 C21.21263672 9.50412109 21.23777344 10.32074219 21.26367188 11.16210938 C21.32170486 15.94015822 21.14903871 19.13423093 18 23 C15.4639472 24.2680264 13.51988836 24.27534899 10.6875 24.375 C9.74261719 24.42398438 8.79773438 24.47296875 7.82421875 24.5234375 C3.70914941 23.76075522 2.39278581 22.41641439 0 19 C-0.58736322 15.70136229 -0.47424037 12.52432831 -0.3125 9.1875 C-0.28994141 8.30384766 -0.26738281 7.42019531 -0.24414062 6.50976562 C-0.18547428 4.3391109 -0.09579979 2.1693331 0 0 Z " fill="#000000" transform="translate(525,225)"/>
<path d="M0 0 C1.98 0 3.96 0 6 0 C6.06058594 1.13179687 6.12117188 2.26359375 6.18359375 3.4296875 C6.26799917 4.91147145 6.35264717 6.3932416 6.4375 7.875 C6.47681641 8.62136719 6.51613281 9.36773437 6.55664062 10.13671875 C6.71573624 14.19986864 6.71573624 14.19986864 8 18 C9.98 18 11.96 18 14 18 C14.495 9.09 14.495 9.09 15 0 C16.98 0 18.96 0 21 0 C21.13530844 3.06398451 21.2342407 6.12197126 21.3125 9.1875 C21.35439453 10.05181641 21.39628906 10.91613281 21.43945312 11.80664062 C21.52451058 16.24663959 21.45258345 18.35856878 18.828125 22.078125 C14.32065954 25.14120926 10.25519927 24.89071174 5 24 C1.83379905 21.81381363 1.2103613 20.63108389 0 17 C-0.07973476 15.66474283 -0.10771338 14.32587917 -0.09765625 12.98828125 C-0.09443359 12.23095703 -0.09121094 11.47363281 -0.08789062 10.69335938 C-0.07951172 9.90767578 -0.07113281 9.12199219 -0.0625 8.3125 C-0.05798828 7.51521484 -0.05347656 6.71792969 -0.04882812 5.89648438 C-0.0370585 3.93095743 -0.01912348 1.96546915 0 0 Z " fill="#000000" transform="translate(338,225)"/>
<path d="M0 0 C3.4375 1.5 3.4375 1.5 6 3 C4.25 6.875 4.25 6.875 2 8 C-0.01222047 7.3711811 -2.01276732 6.70381157 -4 6 C-4.66 6 -5.32 6 -6 6 C-6 6.99 -6 7.98 -6 9 C-4.7625 9.2475 -3.525 9.495 -2.25 9.75 C1.52632818 10.72086451 3.80058399 11.60923365 6 15 C6.5 18.5625 6.5 18.5625 6 22 C3.80176862 24.20840838 2.44536957 24.93908916 -0.65625 25.36328125 C-1.5946875 25.34652344 -2.533125 25.32976562 -3.5 25.3125 C-4.4384375 25.30863281 -5.376875 25.30476563 -6.34375 25.30078125 C-9.02087334 24.9976364 -10.69965635 24.36176004 -13 23 C-12.49396008 20.83125748 -12.00016187 19.00032373 -11 17 C-10.29875 17.309375 -9.5975 17.61875 -8.875 17.9375 C-5.91063343 19.03302678 -3.12301892 19.56422992 0 20 C-0.65823521 16.89377691 -0.65823521 16.89377691 -2.99609375 15.90234375 C-3.80175781 15.58394531 -4.60742188 15.26554688 -5.4375 14.9375 C-8.24933055 13.81367045 -9.8372207 13.1627793 -12 11 C-12.4375 7.625 -12.4375 7.625 -12 4 C-8.42859597 -0.22075022 -5.36254955 -0.65855872 0 0 Z " fill="#000000" transform="translate(843,224)"/>
<path d="M0 0 C3.4375 1.5 3.4375 1.5 6 3 C4.25 6.875 4.25 6.875 2 8 C-0.01222047 7.3711811 -2.01276732 6.70381157 -4 6 C-4.66 6 -5.32 6 -6 6 C-6 6.99 -6 7.98 -6 9 C-5.30132813 9.18175781 -4.60265625 9.36351562 -3.8828125 9.55078125 C-2.97273437 9.80214844 -2.06265625 10.05351562 -1.125 10.3125 C0.23238281 10.67794922 0.23238281 10.67794922 1.6171875 11.05078125 C4 12 4 12 6 15 C6.375 18.5 6.375 18.5 6 22 C3.80828314 24.21720194 2.44572131 24.93904106 -0.65625 25.36328125 C-1.5946875 25.34652344 -2.533125 25.32976562 -3.5 25.3125 C-4.4384375 25.30863281 -5.376875 25.30476563 -6.34375 25.30078125 C-9.02087334 24.9976364 -10.69965635 24.36176004 -13 23 C-12.49396008 20.83125748 -12.00016187 19.00032373 -11 17 C-10.29875 17.309375 -9.5975 17.61875 -8.875 17.9375 C-5.91063343 19.03302678 -3.12301892 19.56422992 0 20 C-0.65823521 16.89377691 -0.65823521 16.89377691 -2.99609375 15.90234375 C-3.80175781 15.58394531 -4.60742188 15.26554688 -5.4375 14.9375 C-8.24933055 13.81367045 -9.8372207 13.1627793 -12 11 C-12.4375 7.625 -12.4375 7.625 -12 4 C-8.42859597 -0.22075022 -5.36254955 -0.65855872 0 0 Z " fill="#000000" transform="translate(562,224)"/>
<path d="M0 0 C0.845625 0.495 1.69125 0.99 2.5625 1.5 C2.5625 2.82 2.5625 4.14 2.5625 5.5 C-0.51850023 6.38028578 -1.98615745 6.68714203 -5 5.4375 C-7.39351133 4.22045909 -7.39351133 4.22045909 -9.6875 5.25 C-11.58046569 6.39602495 -11.58046569 6.39602495 -12.4375 8.5 C-12.69610135 12.55142119 -12.74191554 14.04337669 -10.4375 17.5 C-6.19751646 17.89259107 -3.07016059 17.82490278 0.5625 15.5 C1.5525 16.49 2.5425 17.48 3.5625 18.5 C2.5625 21.5 2.5625 21.5 -0.4375 23.25 C-4.85448133 24.95862652 -8.92704741 24.90212571 -13.4375 23.5 C-16.67794458 20.93464804 -18.13310167 19.413195 -19.4375 15.5 C-19.80153898 9.94840561 -19.73181293 6.22184853 -16.4375 1.5 C-10.96240219 -2.23302123 -6.0581654 -2.64356309 0 0 Z " fill="#000000" transform="translate(642.4375,225.5)"/>
<path d="M0 0 C5.28 0 10.56 0 16 0 C16 1.32 16 2.64 16 4 C12.7 4 9.4 4 6 4 C6 5.65 6 7.3 6 9 C8.64 9 11.28 9 14 9 C14 10.65 14 12.3 14 14 C11.36 14 8.72 14 6 14 C6 15.65 6 17.3 6 19 C9.63 19 13.26 19 17 19 C17 20.65 17 22.3 17 24 C11.39 24 5.78 24 0 24 C0 16.08 0 8.16 0 0 Z " fill="#000000" transform="translate(605,225)"/>
<path d="M0 0 C5.28 0 10.56 0 16 0 C16 1.32 16 2.64 16 4 C12.37 4 8.74 4 5 4 C5 5.65 5 7.3 5 9 C7.97 9 10.94 9 14 9 C14 10.65 14 12.3 14 14 C11.03 14 8.06 14 5 14 C5 15.65 5 17.3 5 19 C8.63 19 12.26 19 16 19 C16 20.65 16 22.3 16 24 C10.72 24 5.44 24 0 24 C0 16.08 0 8.16 0 0 Z " fill="#000000" transform="translate(812,225)"/>
<path d="M0 0 C6.93 0 13.86 0 21 0 C21 1.32 21 2.64 21 4 C18.69 4 16.38 4 14 4 C14 10.6 14 17.2 14 24 C12.02 24 10.04 24 8 24 C8 17.4 8 10.8 8 4 C5.36 4 2.72 4 0 4 C0 2.68 0 1.36 0 0 Z " fill="#000000" transform="translate(362,225)"/>
<path d="M0 0 C6.6 0 13.2 0 20 0 C20 1.32 20 2.64 20 4 C17.69 4 15.38 4 13 4 C13 10.6 13 17.2 13 24 C11.02 24 9.04 24 7 24 C7 17.4 7 10.8 7 4 C4.69 4 2.38 4 0 4 C0 2.68 0 1.36 0 0 Z " fill="#000000" transform="translate(581,225)"/>
<path d="M0 0 C1.98 0 3.96 0 6 0 C6 6.27 6 12.54 6 19 C9.3 19 12.6 19 16 19 C16 20.65 16 22.3 16 24 C10.72 24 5.44 24 0 24 C0 16.08 0 8.16 0 0 Z " fill="#000000" transform="translate(729,225)"/>
<path d="M0 0 C0.33 0.99 0.66 1.98 1 3 C-0.58203125 5.91796875 -0.58203125 5.91796875 -2.8125 9.1875 C-3.54082031 10.27417969 -4.26914063 11.36085937 -5.01953125 12.48046875 C-5.67308594 13.31191406 -6.32664063 14.14335937 -7 15 C-7.66 15 -8.32 15 -9 15 C-9.19722656 15.54398438 -9.39445312 16.08796875 -9.59765625 16.6484375 C-11.61345468 20.02869003 -14.41361398 22.15301449 -17.4375 24.625 C-18.02337891 25.11484375 -18.60925781 25.6046875 -19.21289062 26.109375 C-21.74143851 28.21027971 -24.26268444 30.17512296 -27 32 C-28.32 31.67 -29.64 31.34 -31 31 C-20.77 20.77 -10.54 10.54 0 0 Z " fill="#69BA5E" transform="translate(199,230)"/>
<path d="M0 0 C1.98 0 3.96 0 6 0 C6 7.92 6 15.84 6 24 C4.02 24 2.04 24 0 24 C0 16.08 0 8.16 0 0 Z " fill="#000000" transform="translate(800,225)"/>
<path d="M0 0 C0.66 0.33 1.32 0.66 2 1 C-3.94 6.94 -9.88 12.88 -16 19 C-15.67 19.99 -15.34 20.98 -15 22 C-16.26607607 22.53229326 -17.53810412 23.05044544 -18.8125 23.5625 C-19.52019531 23.85253906 -20.22789062 24.14257812 -20.95703125 24.44140625 C-23 25 -23 25 -26 24 C-22.7857893 20.73635745 -19.56506907 17.4793342 -16.33813477 14.22827148 C-15.24126629 13.12134446 -14.14619943 12.01262917 -13.05297852 10.90209961 C-11.48143015 9.30629675 -9.90351836 7.71703377 -8.32421875 6.12890625 C-7.83660568 5.63097061 -7.34899261 5.13303497 -6.84660339 4.62001038 C-4.56084381 2.33350057 -3.11722883 1.03907628 0 0 Z " fill="#76BD4B" transform="translate(177,245)"/>
<path d="M0 0 C0.57363281 0.72316406 1.14726563 1.44632813 1.73828125 2.19140625 C11.24806947 14.00062513 19.82148343 20.57809688 34 26 C29.56126847 27.54038172 26.87247485 26.14553901 22.7109375 24.3515625 C12.44105096 19.23141734 2.59620836 11.11276237 -3 1 C-2.01 0.67 -1.02 0.34 0 0 Z " fill="#FBDF42" transform="translate(88,182)"/>
<path d="M0 0 C1.26108078 0.0001133 1.26108078 0.0001133 2.54763794 0.00022888 C3.91020218 0.00797081 3.91020218 0.00797081 5.30029297 0.01586914 C6.22969696 0.01728409 7.15910095 0.01869904 8.1166687 0.02015686 C11.09197171 0.02576486 14.06720011 0.03831871 17.04248047 0.05102539 C19.0568023 0.05603936 21.07112531 0.06060245 23.08544922 0.06469727 C28.02948849 0.07573689 32.97347182 0.0930069 37.91748047 0.11352539 C37.91748047 0.44352539 37.91748047 0.77352539 37.91748047 1.11352539 C36.69641602 1.13334473 35.47535156 1.15316406 34.21728516 1.17358398 C29.68468693 1.24968662 25.15240777 1.338397 20.62011719 1.4309082 C18.65891827 1.46917866 16.69764962 1.50403493 14.73632812 1.53540039 C11.9162505 1.58109279 9.09665209 1.63908039 6.27685547 1.69946289 C5.40067566 1.7110141 4.52449585 1.72256531 3.62176514 1.73446655 C2.39094208 1.76427109 2.39094208 1.76427109 1.13525391 1.79467773 C0.41577576 1.8080014 -0.30370239 1.82132507 -1.04498291 1.83505249 C-3.38407429 2.15473929 -5.0377919 2.95941755 -7.08251953 4.11352539 C-6.75251953 3.12352539 -6.42251953 2.13352539 -6.08251953 1.11352539 C-3.79620459 -0.02963208 -2.53904547 -0.00760193 0 0 Z " fill="#7C7C7C" transform="translate(764.08251953125,54.886474609375)"/>
<path d="M0 0 C-0.99 1.485 -0.99 1.485 -2 3 C-4.6015625 3.51171875 -4.6015625 3.51171875 -7.625 3.6875 C-9.12933594 3.78611328 -9.12933594 3.78611328 -10.6640625 3.88671875 C-11.82035156 3.94279297 -11.82035156 3.94279297 -13 4 C-12.67 3.01 -12.34 2.02 -12 1 C-7.9472484 0.01751476 -4.16138263 -0.08159574 0 0 Z " fill="#C6464B" transform="translate(184,99)"/>
<path d="M0 0 C0.33 0 0.66 0 1 0 C1 3.3 1 6.6 1 10 C1.66 10 2.32 10 3 10 C2.25 16.75 2.25 16.75 0 19 C0 12.73 0 6.46 0 0 Z " fill="#37B35F" transform="translate(221,185)"/>
<path d="M0 0 C0.99 0.33 1.98 0.66 3 1 C2.01 4.3 1.02 7.6 0 11 C-2.30163882 7.54754176 -2.34490322 6.05261287 -2 2 C-1.34 1.34 -0.68 0.68 0 0 Z " fill="#404040" transform="translate(288,56)"/>
<path d="M0 0 C0.66 0.33 1.32 0.66 2 1 C1.67 1.99 1.34 2.98 1 4 C-0.65 4.33 -2.3 4.66 -4 5 C-2.68 3.35 -1.36 1.7 0 0 Z " fill="#60B657" transform="translate(178,253)"/>
<path d="M0 0 C0.33 0 0.66 0 1 0 C0.67 2.97 0.34 5.94 0 9 C-1.32 9.33 -2.64 9.66 -4 10 C-2.8905928 6.51329166 -1.73662334 3.22515763 0 0 Z " fill="#6DBA53" transform="translate(205,215)"/>
<path d="M0 0 C0.33 0.99 0.66 1.98 1 3 C-1.33347006 7.23481604 -2.59591211 8.79795605 -7 11 C-4.69 7.37 -2.38 3.74 0 0 Z " fill="#89C87B" transform="translate(196,193)"/>
<path d="M0 0 C2.5654594 2.5654594 2.54046087 4.47686668 3 8 C-1.875 3.25 -1.875 3.25 -3 1 C-2.01 0.67 -1.02 0.34 0 0 Z " fill="#FBE043" transform="translate(88,182)"/>
</svg>
