<svg width="401" height="149" viewBox="0 0 401 149" fill="none" xmlns="http://www.w3.org/2000/svg">
<g filter="url(#filter0_di_216_1253)">
<mask id="path-1-outside-1_216_1253" maskUnits="userSpaceOnUse" x="4" y="0" width="393" height="141" fill="black">
<rect fill="white" x="4" width="393" height="141"/>
<path d="M5.92969 29.2344V2.28125H90.5V29.2344H61.9844V139H34.4453V29.2344H5.92969ZM111.633 139V2.28125H182.727V29.625H139.172V57.3594H164.367V84.8984H139.172V111.461H182.727V139H111.633ZM207.57 103.648V37.8281C207.57 30.276 210.37 22.9193 215.969 15.7578C223.391 6.2526 233.417 1.4349 246.047 1.30469V28.8438C240.578 28.974 237.062 31.513 235.5 36.4609C235.24 36.9818 235.109 37.4375 235.109 37.8281V103.648C235.109 105.732 236.216 107.75 238.43 109.703C240.513 111.526 243.052 112.438 246.047 112.438V139.977C231.464 139.977 220.461 133.857 213.039 121.617C209.393 115.367 207.57 109.378 207.57 103.648ZM256.594 139.977V112.438C256.594 112.438 258.091 111.852 261.086 110.68C262.909 109.378 264.146 108.01 264.797 106.578C265.448 104.885 265.773 102.477 265.773 99.3516V97.0078L292.727 103.453C292.727 114.781 288.169 124.156 279.055 131.578C272.154 137.177 264.667 139.977 256.594 139.977ZM256.594 28.8438V1.30469C266.099 1.30469 274.693 5.47135 282.375 13.8047C289.276 21.3568 292.727 29.4948 292.727 38.2188L265.773 45.25V42.3203C265.773 39.0651 265.448 36.6562 264.797 35.0938C264.276 33.7917 263.299 32.6198 261.867 31.5781C260.565 30.5365 259.393 29.8203 258.352 29.4297L256.594 28.8438ZM314.445 139V2.28125H341.984V56.7734H349.602V83.7266H341.984V139H314.445ZM360.344 83.7266V56.7734H367.961V2.28125H395.5V139H367.961V83.7266H360.344Z"/>
</mask>
<path d="M5.92969 29.2344V2.28125H90.5V29.2344H61.9844V139H34.4453V29.2344H5.92969ZM111.633 139V2.28125H182.727V29.625H139.172V57.3594H164.367V84.8984H139.172V111.461H182.727V139H111.633ZM207.57 103.648V37.8281C207.57 30.276 210.37 22.9193 215.969 15.7578C223.391 6.2526 233.417 1.4349 246.047 1.30469V28.8438C240.578 28.974 237.062 31.513 235.5 36.4609C235.24 36.9818 235.109 37.4375 235.109 37.8281V103.648C235.109 105.732 236.216 107.75 238.43 109.703C240.513 111.526 243.052 112.438 246.047 112.438V139.977C231.464 139.977 220.461 133.857 213.039 121.617C209.393 115.367 207.57 109.378 207.57 103.648ZM256.594 139.977V112.438C256.594 112.438 258.091 111.852 261.086 110.68C262.909 109.378 264.146 108.01 264.797 106.578C265.448 104.885 265.773 102.477 265.773 99.3516V97.0078L292.727 103.453C292.727 114.781 288.169 124.156 279.055 131.578C272.154 137.177 264.667 139.977 256.594 139.977ZM256.594 28.8438V1.30469C266.099 1.30469 274.693 5.47135 282.375 13.8047C289.276 21.3568 292.727 29.4948 292.727 38.2188L265.773 45.25V42.3203C265.773 39.0651 265.448 36.6562 264.797 35.0938C264.276 33.7917 263.299 32.6198 261.867 31.5781C260.565 30.5365 259.393 29.8203 258.352 29.4297L256.594 28.8438ZM314.445 139V2.28125H341.984V56.7734H349.602V83.7266H341.984V139H314.445ZM360.344 83.7266V56.7734H367.961V2.28125H395.5V139H367.961V83.7266H360.344Z" fill="#AB83FE" shape-rendering="crispEdges"/>
<path d="M5.92969 29.2344H4.92969V30.2344H5.92969V29.2344ZM5.92969 2.28125V1.28125H4.92969V2.28125H5.92969ZM90.5 2.28125H91.5V1.28125H90.5V2.28125ZM90.5 29.2344V30.2344H91.5V29.2344H90.5ZM61.9844 29.2344V28.2344H60.9844V29.2344H61.9844ZM61.9844 139V140H62.9844V139H61.9844ZM34.4453 139H33.4453V140H34.4453V139ZM34.4453 29.2344H35.4453V28.2344H34.4453V29.2344ZM6.92969 29.2344V2.28125H4.92969V29.2344H6.92969ZM5.92969 3.28125H90.5V1.28125H5.92969V3.28125ZM89.5 2.28125V29.2344H91.5V2.28125H89.5ZM90.5 28.2344H61.9844V30.2344H90.5V28.2344ZM60.9844 29.2344V139H62.9844V29.2344H60.9844ZM61.9844 138H34.4453V140H61.9844V138ZM35.4453 139V29.2344H33.4453V139H35.4453ZM34.4453 28.2344H5.92969V30.2344H34.4453V28.2344ZM111.633 139H110.633V140H111.633V139ZM111.633 2.28125V1.28125H110.633V2.28125H111.633ZM182.727 2.28125H183.727V1.28125H182.727V2.28125ZM182.727 29.625V30.625H183.727V29.625H182.727ZM139.172 29.625V28.625H138.172V29.625H139.172ZM139.172 57.3594H138.172V58.3594H139.172V57.3594ZM164.367 57.3594H165.367V56.3594H164.367V57.3594ZM164.367 84.8984V85.8984H165.367V84.8984H164.367ZM139.172 84.8984V83.8984H138.172V84.8984H139.172ZM139.172 111.461H138.172V112.461H139.172V111.461ZM182.727 111.461H183.727V110.461H182.727V111.461ZM182.727 139V140H183.727V139H182.727ZM112.633 139V2.28125H110.633V139H112.633ZM111.633 3.28125H182.727V1.28125H111.633V3.28125ZM181.727 2.28125V29.625H183.727V2.28125H181.727ZM182.727 28.625H139.172V30.625H182.727V28.625ZM138.172 29.625V57.3594H140.172V29.625H138.172ZM139.172 58.3594H164.367V56.3594H139.172V58.3594ZM163.367 57.3594V84.8984H165.367V57.3594H163.367ZM164.367 83.8984H139.172V85.8984H164.367V83.8984ZM138.172 84.8984V111.461H140.172V84.8984H138.172ZM139.172 112.461H182.727V110.461H139.172V112.461ZM181.727 111.461V139H183.727V111.461H181.727ZM182.727 138H111.633V140H182.727V138ZM215.969 15.7578L216.757 16.3737L216.757 16.3732L215.969 15.7578ZM246.047 1.30469H247.047V0.294325L246.037 0.304741L246.047 1.30469ZM246.047 28.8438L246.071 29.8435L247.047 29.8202V28.8438H246.047ZM235.5 36.4609L236.394 36.9082L236.43 36.8374L236.454 36.7621L235.5 36.4609ZM238.43 109.703L237.768 110.453L237.771 110.456L238.43 109.703ZM246.047 112.438H247.047V111.438H246.047V112.438ZM246.047 139.977V140.977H247.047V139.977H246.047ZM213.039 121.617L212.175 122.121L212.18 122.128L212.184 122.136L213.039 121.617ZM256.594 139.977H255.594V140.977H256.594V139.977ZM256.594 112.438L256.229 111.506L255.594 111.755V112.438H256.594ZM261.086 110.68L261.45 111.611L261.566 111.566L261.667 111.493L261.086 110.68ZM264.797 106.578L265.707 106.992L265.72 106.965L265.73 106.937L264.797 106.578ZM265.773 97.0078L266.006 96.0352L264.773 95.7405V97.0078H265.773ZM292.727 103.453H293.727V102.664L292.959 102.481L292.727 103.453ZM279.055 131.578L279.685 132.355L279.686 132.354L279.055 131.578ZM256.594 28.8438H255.594V29.5645L256.278 29.7924L256.594 28.8438ZM256.594 1.30469V0.304688H255.594V1.30469H256.594ZM282.375 13.8047L283.113 13.1301L283.11 13.1269L282.375 13.8047ZM292.727 38.2188L292.979 39.1864L293.727 38.9913V38.2188H292.727ZM265.773 45.25H264.773V46.5443L266.026 46.2176L265.773 45.25ZM264.797 35.0938L263.868 35.4651L263.871 35.4718L263.874 35.4784L264.797 35.0938ZM261.867 31.5781L261.242 32.359L261.26 32.3733L261.279 32.3869L261.867 31.5781ZM258.352 29.4297L258.703 28.4934L258.685 28.4869L258.668 28.481L258.352 29.4297ZM208.57 103.648V37.8281H206.57V103.648H208.57ZM208.57 37.8281C208.57 30.5421 211.266 23.3963 216.757 16.3737L215.181 15.1419C209.473 22.4422 206.57 30.01 206.57 37.8281H208.57ZM216.757 16.3732C223.982 7.12074 233.715 2.43188 246.057 2.30463L246.037 0.304741C233.119 0.437914 222.8 5.38447 215.181 15.1424L216.757 16.3732ZM245.047 1.30469V28.8438H247.047V1.30469H245.047ZM246.023 27.844C243.14 27.9127 240.683 28.6196 238.723 30.035C236.759 31.4537 235.379 33.5223 234.546 36.1598L236.454 36.7621C237.183 34.4517 238.343 32.7768 239.894 31.6564C241.45 30.5328 243.485 29.905 246.071 29.8435L246.023 27.844ZM234.606 36.0137C234.307 36.6109 234.109 37.2249 234.109 37.8281H236.109C236.109 37.6501 236.172 37.3527 236.394 36.9082L234.606 36.0137ZM234.109 37.8281V103.648H236.109V37.8281H234.109ZM234.109 103.648C234.109 106.122 235.432 108.392 237.768 110.453L239.091 108.953C237 107.108 236.109 105.341 236.109 103.648H234.109ZM237.771 110.456C240.052 112.452 242.831 113.438 246.047 113.438V111.438C243.273 111.438 240.974 110.6 239.088 108.951L237.771 110.456ZM245.047 112.438V139.977H247.047V112.438H245.047ZM246.047 138.977C231.805 138.977 221.131 133.033 213.894 121.099L212.184 122.136C219.791 134.681 231.122 140.977 246.047 140.977V138.977ZM213.903 121.113C210.323 114.977 208.57 109.16 208.57 103.648H206.57C206.57 109.596 208.463 115.758 212.175 122.121L213.903 121.113ZM257.594 139.977V112.438H255.594V139.977H257.594ZM256.594 112.438C256.958 113.369 256.958 113.369 256.958 113.369C256.958 113.369 256.958 113.369 256.958 113.369C256.958 113.369 256.958 113.369 256.958 113.369C256.958 113.369 256.958 113.369 256.958 113.369C256.959 113.368 256.959 113.369 256.959 113.368C256.96 113.368 256.961 113.368 256.963 113.367C256.967 113.365 256.968 113.365 256.976 113.362C256.993 113.355 257 113.352 257.028 113.341C257.12 113.305 257.1 113.313 257.239 113.259C257.496 113.158 257.637 113.103 258.081 112.929C258.326 112.833 258.421 112.796 258.713 112.682C258.864 112.623 258.919 112.602 259.081 112.538C259.164 112.506 259.193 112.494 259.279 112.461C259.322 112.444 259.337 112.438 259.381 112.421C259.403 112.412 259.41 112.409 259.433 112.4C259.444 112.396 259.448 112.395 259.459 112.39C259.463 112.389 259.467 112.387 259.472 112.385C259.476 112.383 259.481 112.382 259.485 112.38C259.643 112.318 259.754 112.275 259.924 112.208C260.119 112.132 260.19 112.104 260.397 112.023C260.479 111.991 260.563 111.958 260.648 111.925C260.702 111.904 260.721 111.896 260.776 111.875C260.781 111.873 260.787 111.871 260.792 111.869C260.797 111.866 260.803 111.864 260.808 111.862C260.814 111.86 260.819 111.858 260.825 111.856C260.83 111.854 260.835 111.852 260.841 111.849C260.846 111.847 260.852 111.845 260.857 111.843C260.863 111.841 260.868 111.839 260.874 111.837C260.927 111.816 260.853 111.845 260.906 111.824C260.909 111.823 260.937 111.812 260.939 111.811C260.953 111.805 260.958 111.803 260.972 111.798C261.023 111.778 260.988 111.792 261.039 111.772C261.096 111.75 261.116 111.742 261.174 111.719C261.29 111.674 261.331 111.658 261.45 111.611L260.722 109.748C260.692 109.76 260.681 109.764 260.652 109.776C260.569 109.808 260.665 109.771 260.582 109.803C260.534 109.822 260.596 109.797 260.548 109.816C260.542 109.819 260.536 109.821 260.531 109.823C260.525 109.825 260.519 109.828 260.513 109.83C260.503 109.834 260.489 109.839 260.479 109.843C260.431 109.862 260.493 109.838 260.445 109.857C260.439 109.859 260.434 109.861 260.428 109.863C260.423 109.865 260.417 109.868 260.411 109.87C260.401 109.874 260.387 109.879 260.377 109.883C260.33 109.902 260.391 109.878 260.344 109.896C260.338 109.898 260.333 109.901 260.327 109.903C260.321 109.905 260.316 109.907 260.31 109.909C260.281 109.921 260.207 109.95 260.178 109.961C259.983 110.037 259.851 110.089 259.669 110.16C259.616 110.181 259.598 110.188 259.547 110.208C259.541 110.21 259.492 110.229 259.487 110.232C259.474 110.237 259.47 110.238 259.457 110.243C259.442 110.249 259.443 110.249 259.427 110.255C259.409 110.262 259.327 110.294 259.31 110.301C259.305 110.303 259.3 110.305 259.296 110.306C259.291 110.308 259.286 110.31 259.281 110.312C259.266 110.318 259.267 110.318 259.252 110.323C259.218 110.337 259.257 110.321 259.223 110.335C259.219 110.337 259.214 110.338 259.209 110.34C259.204 110.342 259.2 110.344 259.195 110.346C259.19 110.348 259.185 110.35 259.181 110.351C259.176 110.353 259.171 110.355 259.166 110.357C259.162 110.359 259.157 110.361 259.152 110.363C259.148 110.364 259.143 110.366 259.138 110.368C259.133 110.37 259.129 110.372 259.124 110.374C259.119 110.375 259.115 110.377 259.11 110.379C259.095 110.385 259.096 110.384 259.082 110.39C259.065 110.397 258.987 110.427 258.971 110.433C258.925 110.452 258.908 110.458 258.863 110.476C258.84 110.485 258.832 110.488 258.809 110.497C258.734 110.526 258.831 110.488 258.756 110.517C258.74 110.524 258.667 110.552 258.652 110.558C258.579 110.587 258.673 110.55 258.601 110.578C258.595 110.581 258.581 110.586 258.575 110.588C258.571 110.59 258.567 110.592 258.563 110.593C258.558 110.595 258.554 110.597 258.55 110.598C258.546 110.6 258.529 110.607 258.525 110.608C258.519 110.61 258.505 110.616 258.5 110.618C258.496 110.619 258.492 110.621 258.487 110.623C258.483 110.624 258.479 110.626 258.475 110.628C258.471 110.629 258.467 110.631 258.463 110.632C258.458 110.634 258.454 110.636 258.45 110.637C258.445 110.639 258.431 110.645 258.426 110.647C258.415 110.651 258.412 110.652 258.401 110.656C258.38 110.665 258.373 110.667 258.353 110.675C258.312 110.691 258.297 110.697 258.257 110.713C258.253 110.714 258.249 110.716 258.245 110.717C258.242 110.719 258.238 110.72 258.234 110.722C258.22 110.727 258.224 110.726 258.21 110.731C258.206 110.733 258.203 110.734 258.199 110.736C258.195 110.737 258.191 110.739 258.187 110.74C258.183 110.742 258.179 110.743 258.176 110.745C258.172 110.746 258.168 110.748 258.164 110.749C258.031 110.801 258.114 110.769 257.984 110.82C257.939 110.837 258.008 110.81 257.962 110.828C257.959 110.83 257.955 110.831 257.951 110.832C257.948 110.834 257.944 110.835 257.941 110.837C257.896 110.854 257.942 110.836 257.897 110.854C257.894 110.855 257.89 110.856 257.887 110.858C257.883 110.859 257.88 110.86 257.876 110.862C257.873 110.863 257.869 110.865 257.866 110.866C257.862 110.867 257.858 110.869 257.855 110.87C257.783 110.898 257.906 110.85 257.834 110.878C257.83 110.88 257.827 110.881 257.823 110.882C257.82 110.884 257.816 110.885 257.813 110.887C257.743 110.914 257.8 110.891 257.731 110.919C257.635 110.956 257.746 110.913 257.651 110.95C257.61 110.966 257.613 110.965 257.573 110.981C257.547 110.991 257.56 110.986 257.535 110.995C257.489 111.013 257.562 110.985 257.516 111.003C257.513 111.004 257.51 111.005 257.507 111.007C257.503 111.008 257.5 111.009 257.497 111.01C257.409 111.045 257.511 111.005 257.424 111.039C257.404 111.047 257.426 111.038 257.406 111.046C257.403 111.047 257.4 111.048 257.397 111.049C257.394 111.051 257.391 111.052 257.388 111.053C257.33 111.076 257.428 111.037 257.37 111.06C257.321 111.079 257.402 111.047 257.352 111.067C257.321 111.079 257.245 111.109 257.216 111.12C257.214 111.121 257.211 111.122 257.208 111.123C257.205 111.124 257.203 111.125 257.2 111.126C257.193 111.129 257.191 111.13 257.184 111.133C257.181 111.134 257.178 111.135 257.176 111.136C257.173 111.137 257.17 111.138 257.168 111.139C257.165 111.14 257.162 111.141 257.16 111.142C257.157 111.143 257.154 111.144 257.152 111.145C257.069 111.178 257.202 111.125 257.12 111.158C257.118 111.159 257.091 111.169 257.089 111.17C257.076 111.175 257.072 111.177 257.059 111.182C257.046 111.187 257.057 111.183 257.044 111.188C257.041 111.189 257.039 111.19 257.036 111.191C257.034 111.191 257.031 111.192 257.029 111.193C256.994 111.207 257.034 111.191 257 111.205C256.984 111.211 257 111.205 256.985 111.211C256.937 111.229 257.018 111.198 256.971 111.216C256.956 111.222 256.957 111.221 256.942 111.227C256.94 111.228 256.938 111.229 256.936 111.23C256.933 111.231 256.931 111.232 256.929 111.233C256.917 111.237 256.927 111.233 256.915 111.238C256.838 111.268 256.938 111.229 256.861 111.259C256.844 111.266 256.774 111.293 256.76 111.299C256.758 111.299 256.738 111.307 256.736 111.308C256.734 111.309 256.732 111.309 256.73 111.31C256.728 111.311 256.727 111.312 256.725 111.312C256.723 111.313 256.721 111.314 256.719 111.315C256.717 111.315 256.715 111.316 256.713 111.317C256.711 111.318 256.709 111.319 256.707 111.319C256.705 111.32 256.703 111.321 256.702 111.321C256.7 111.322 256.691 111.326 256.69 111.326C256.674 111.332 256.696 111.324 256.679 111.33C256.673 111.333 256.675 111.332 256.668 111.335C256.623 111.352 256.692 111.325 256.646 111.343C256.636 111.347 256.646 111.343 256.636 111.347C256.634 111.348 256.632 111.349 256.63 111.349C256.629 111.35 256.627 111.351 256.625 111.351C256.615 111.356 256.615 111.355 256.605 111.359C256.599 111.361 256.6 111.361 256.595 111.363C256.585 111.367 256.594 111.363 256.585 111.367C256.57 111.373 256.579 111.369 256.565 111.375C256.56 111.377 256.561 111.376 256.556 111.379C256.542 111.384 256.56 111.377 256.546 111.382C256.545 111.383 256.543 111.383 256.542 111.384C256.54 111.385 256.539 111.385 256.537 111.386C256.511 111.396 256.554 111.379 256.528 111.389C256.478 111.409 256.56 111.377 256.51 111.396C256.509 111.397 256.507 111.398 256.506 111.398C256.504 111.399 256.503 111.399 256.501 111.4C256.473 111.411 256.521 111.392 256.493 111.403C256.473 111.411 256.496 111.402 256.476 111.41C256.473 111.411 256.447 111.421 256.444 111.422C256.443 111.423 256.438 111.425 256.437 111.425C256.423 111.431 256.443 111.423 256.429 111.428C256.382 111.447 256.462 111.415 256.415 111.434C256.4 111.44 256.401 111.439 256.387 111.444C256.355 111.457 256.368 111.452 256.339 111.463C256.294 111.481 256.363 111.454 256.318 111.471C256.268 111.491 256.349 111.459 256.3 111.479C256.299 111.479 256.298 111.479 256.297 111.48C256.297 111.48 256.296 111.48 256.295 111.48C256.295 111.481 256.294 111.481 256.293 111.481C256.292 111.482 256.292 111.482 256.291 111.482C256.287 111.484 256.291 111.482 256.287 111.484C256.286 111.484 256.286 111.484 256.285 111.484C256.284 111.485 256.284 111.485 256.283 111.485C256.261 111.494 256.29 111.483 256.269 111.491C256.232 111.505 256.293 111.482 256.257 111.496C256.249 111.499 256.26 111.494 256.252 111.498C256.244 111.501 256.255 111.496 256.247 111.499C256.247 111.5 256.246 111.5 256.246 111.5C256.245 111.5 256.245 111.5 256.245 111.5C256.244 111.5 256.244 111.5 256.244 111.501C256.243 111.501 256.243 111.501 256.243 111.501C256.242 111.501 256.242 111.501 256.242 111.501C256.242 111.501 256.241 111.502 256.241 111.502C256.241 111.502 256.24 111.502 256.24 111.502C256.24 111.502 256.239 111.502 256.239 111.502C256.225 111.508 256.247 111.499 256.234 111.505C256.234 111.505 256.233 111.505 256.233 111.505C256.233 111.505 256.233 111.505 256.233 111.505C256.231 111.505 256.233 111.505 256.232 111.505C256.23 111.506 256.232 111.505 256.23 111.506C256.229 111.506 256.231 111.506 256.23 111.506C256.229 111.506 256.23 111.506 256.23 111.506C256.23 111.506 256.23 111.506 256.23 111.506C256.229 111.506 256.229 111.506 256.229 111.506C256.229 111.506 256.229 111.506 256.229 111.506C256.229 111.506 256.229 111.506 256.594 112.438ZM261.667 111.493C263.576 110.13 264.959 108.638 265.707 106.992L263.887 106.164C263.333 107.383 262.242 108.625 260.505 109.866L261.667 111.493ZM265.73 106.937C266.446 105.076 266.773 102.524 266.773 99.3516H264.773C264.773 102.429 264.45 104.695 263.864 106.219L265.73 106.937ZM266.773 99.3516V97.0078H264.773V99.3516H266.773ZM265.541 97.9804L292.494 104.426L292.959 102.481L266.006 96.0352L265.541 97.9804ZM291.727 103.453C291.727 114.468 287.315 123.562 278.423 130.803L279.686 132.354C289.024 124.75 293.727 115.095 293.727 103.453H291.727ZM278.425 130.802C271.683 136.272 264.414 138.977 256.594 138.977V140.977C264.92 140.977 272.625 138.083 279.685 132.355L278.425 130.802ZM257.594 28.8438V1.30469H255.594V28.8438H257.594ZM256.594 2.30469C265.766 2.30469 274.107 6.31159 281.64 14.4825L283.11 13.1269C275.278 4.63112 266.432 0.304688 256.594 0.304688V2.30469ZM281.637 14.4793C288.4 21.8809 291.727 29.7868 291.727 38.2188H293.727C293.727 29.2028 290.152 20.8327 283.113 13.1301L281.637 14.4793ZM292.474 37.2511L265.521 44.2824L266.026 46.2176L292.979 39.1864L292.474 37.2511ZM266.773 45.25V42.3203H264.773V45.25H266.773ZM266.773 42.3203C266.773 39.0323 266.45 36.4601 265.72 34.7091L263.874 35.4784C264.446 36.8524 264.773 39.0979 264.773 42.3203H266.773ZM265.725 34.7224C265.118 33.2047 264 31.893 262.455 30.7694L261.279 32.3869C262.599 33.3466 263.434 34.3786 263.868 35.4651L265.725 34.7224ZM262.492 30.7973C261.144 29.7191 259.879 28.9346 258.703 28.4934L258 30.366C258.907 30.706 259.986 31.3538 261.242 32.359L262.492 30.7973ZM258.668 28.481L256.91 27.8951L256.278 29.7924L258.035 30.3784L258.668 28.481ZM314.445 139H313.445V140H314.445V139ZM314.445 2.28125V1.28125H313.445V2.28125H314.445ZM341.984 2.28125H342.984V1.28125H341.984V2.28125ZM341.984 56.7734H340.984V57.7734H341.984V56.7734ZM349.602 56.7734H350.602V55.7734H349.602V56.7734ZM349.602 83.7266V84.7266H350.602V83.7266H349.602ZM341.984 83.7266V82.7266H340.984V83.7266H341.984ZM341.984 139V140H342.984V139H341.984ZM360.344 83.7266H359.344V84.7266H360.344V83.7266ZM360.344 56.7734V55.7734H359.344V56.7734H360.344ZM367.961 56.7734V57.7734H368.961V56.7734H367.961ZM367.961 2.28125V1.28125H366.961V2.28125H367.961ZM395.5 2.28125H396.5V1.28125H395.5V2.28125ZM395.5 139V140H396.5V139H395.5ZM367.961 139H366.961V140H367.961V139ZM367.961 83.7266H368.961V82.7266H367.961V83.7266ZM315.445 139V2.28125H313.445V139H315.445ZM314.445 3.28125H341.984V1.28125H314.445V3.28125ZM340.984 2.28125V56.7734H342.984V2.28125H340.984ZM341.984 57.7734H349.602V55.7734H341.984V57.7734ZM348.602 56.7734V83.7266H350.602V56.7734H348.602ZM349.602 82.7266H341.984V84.7266H349.602V82.7266ZM340.984 83.7266V139H342.984V83.7266H340.984ZM341.984 138H314.445V140H341.984V138ZM361.344 83.7266V56.7734H359.344V83.7266H361.344ZM360.344 57.7734H367.961V55.7734H360.344V57.7734ZM368.961 56.7734V2.28125H366.961V56.7734H368.961ZM367.961 3.28125H395.5V1.28125H367.961V3.28125ZM394.5 2.28125V139H396.5V2.28125H394.5ZM395.5 138H367.961V140H395.5V138ZM368.961 139V83.7266H366.961V139H368.961ZM367.961 82.7266H360.344V84.7266H367.961V82.7266Z" fill="black" fill-opacity="0.2" mask="url(#path-1-outside-1_216_1253)"/>
</g>
<defs>
<filter id="filter0_di_216_1253" x="0.929688" y="0.294312" width="399.57" height="148.682" filterUnits="userSpaceOnUse" color-interpolation-filters="sRGB">
<feFlood flood-opacity="0" result="BackgroundImageFix"/>
<feColorMatrix in="SourceAlpha" type="matrix" values="0 0 0 0 0 0 0 0 0 0 0 0 0 0 0 0 0 0 127 0" result="hardAlpha"/>
<feOffset dy="4"/>
<feGaussianBlur stdDeviation="2"/>
<feComposite in2="hardAlpha" operator="out"/>
<feColorMatrix type="matrix" values="0 0 0 0 0 0 0 0 0 0 0 0 0 0 0 0 0 0 0.25 0"/>
<feBlend mode="normal" in2="BackgroundImageFix" result="effect1_dropShadow_216_1253"/>
<feBlend mode="normal" in="SourceGraphic" in2="effect1_dropShadow_216_1253" result="shape"/>
<feColorMatrix in="SourceAlpha" type="matrix" values="0 0 0 0 0 0 0 0 0 0 0 0 0 0 0 0 0 0 127 0" result="hardAlpha"/>
<feOffset dy="4"/>
<feGaussianBlur stdDeviation="2"/>
<feComposite in2="hardAlpha" operator="arithmetic" k2="-1" k3="1"/>
<feColorMatrix type="matrix" values="0 0 0 0 0 0 0 0 0 0 0 0 0 0 0 0 0 0 0.25 0"/>
<feBlend mode="normal" in2="shape" result="effect2_innerShadow_216_1253"/>
</filter>
</defs>
</svg>
